  0
SECTION
  2
HEADER
  9
$ACADVER
  1
AC1009
  9
$INSBASE
 10
0.0
 20
0.0
 30
0.0
  9
$EXTMIN
 10
0.0
 20
0.0
 30
0.0
  9
$EXTMAX
 10
0.0
 20
0.0
 30
0.0
  0
ENDSEC
  0
SECTION
  2
TABLES
  0
TABLE
  2
VPORT
 70
0
  0
ENDTAB
  0
TABLE
  2
LTYPE
 70
1
  0
LTYPE
  2
CONTINUOUS
 70
0
  3
Solid line
 72
65
 73
0
 40
0.0
  0
ENDTAB
  0
TABLE
  2
LAYER
 70
1
  0
LAYER
  2
0
 70
64
 62
7
  6
continuous
  0
ENDTAB
  0
TABLE
  2
STYLE
 70
1
  0
STYLE
  2
STANDARD
 70
0
 40
0
 41
1.0
 50
0.0
 71
0
 42
1
 3
ARIAL.TTF
 4

  0
ENDTAB
  0
TABLE
  2
VIEW
 70
0
  0
ENDTAB
  0
ENDSEC
  0
SECTION
  2
BLOCKS
  0
BLOCK
  8
0
  2
SKETCH
 70
0
 10
0.0
 20
0.0
 30
0.0
  3
SKETCH
  0
POLYLINE
  8
0
 62
7
 70
1
 66
1
 10
0.0
 20
0.0
 30
0.0
  0
VERTEX
  8
0
 10
77.47
 20
38.1
 30
0.0
  0
VERTEX
  8
0
 10
100.33
 20
38.1
 30
0.0
  0
VERTEX
  8
0
 10
100.33
 20
19.0499999971
 30
0.0
 42
-0.999999999796
  0
VERTEX
  8
0
 10
77.47
 20
19.0499999982
 30
0.0
  0
SEQEND
  8
0
  0
CIRCLE
  8
0
 62
7
 10
88.9
 20
19.05
 30
0.0
 40
5.461
  0
ENDBLK
  0
BLOCK
  8
0
  2
SKETCH005
 70
0
 10
0.0
 20
0.0
 30
0.0
  3
SKETCH005
  0
POLYLINE
  8
0
 62
7
 70
1
 66
1
 10
0.0
 20
0.0
 30
0.0
  0
VERTEX
  8
0
 10
109.22
 20
38.1
 30
0.0
  0
VERTEX
  8
0
 10
132.08
 20
38.1
 30
0.0
  0
VERTEX
  8
0
 10
132.08
 20
19.0499999971
 30
0.0
 42
-0.999999999796
  0
VERTEX
  8
0
 10
109.22
 20
19.0499999982
 30
0.0
  0
SEQEND
  8
0
  0
CIRCLE
  8
0
 62
7
 10
120.65
 20
19.05
 30
0.0
 40
5.461
  0
ENDBLK
  0
BLOCK
  8
0
  2
SKETCH006
 70
0
 10
0.0
 20
0.0
 30
0.0
  3
SKETCH006
  0
POLYLINE
  8
0
 62
7
 70
1
 66
1
 10
0.0
 20
0.0
 30
0.0
  0
VERTEX
  8
0
 10
140.97
 20
38.1
 30
0.0
  0
VERTEX
  8
0
 10
163.83
 20
38.1
 30
0.0
  0
VERTEX
  8
0
 10
163.83
 20
19.0499999971
 30
0.0
 42
-0.999999999796
  0
VERTEX
  8
0
 10
140.97
 20
19.0499999982
 30
0.0
  0
SEQEND
  8
0
  0
CIRCLE
  8
0
 62
7
 10
152.4
 20
19.05
 30
0.0
 40
5.461
  0
ENDBLK
  0
BLOCK
  8
0
  2
SKETCH003
 70
0
 10
0.0
 20
0.0
 30
0.0
  3
SKETCH003
  0
POLYLINE
  8
0
 62
7
 70
1
 66
1
 10
0.0
 20
0.0
 30
0.0
  0
VERTEX
  8
0
 10
0.0
 20
0.0
 30
0.0
  0
VERTEX
  8
0
 10
177.8
 20
0.0
 30
0.0
  0
VERTEX
  8
0
 10
177.8
 20
66.675
 30
0.0
  0
VERTEX
  8
0
 10
0.0
 20
66.675
 30
0.0
  0
SEQEND
  8
0
  0
POLYLINE
  8
0
 62
7
 70
1
 66
1
 10
0.0
 20
0.0
 30
0.0
  0
VERTEX
  8
0
 10
12.8678851247
 20
38.1
 30
0.0
  0
VERTEX
  8
0
 10
70.0178851247
 20
38.1
 30
0.0
  0
VERTEX
  8
0
 10
70.0178851247
 20
6.35
 30
0.0
  0
VERTEX
  8
0
 10
12.8678851247
 20
6.35
 30
0.0
  0
SEQEND
  8
0
  0
POLYLINE
  8
0
 62
7
 70
0
 66
1
 10
0.0
 20
0.0
 30
0.0
  0
VERTEX
  8
0
 10
-3.696283
 20
62.9412
 30
0.0
  0
VERTEX
  8
0
 10
180.922379
 20
62.9412
 30
0.0
  0
SEQEND
  8
0
  0
POLYLINE
  8
0
 62
7
 70
0
 66
1
 10
0.0
 20
0.0
 30
0.0
  0
VERTEX
  8
0
 10
-3.696283
 20
62.3824
 30
0.0
  0
VERTEX
  8
0
 10
180.922379
 20
62.3824
 30
0.0
  0
SEQEND
  8
0
  0
POLYLINE
  8
0
 62
7
 70
0
 66
1
 10
0.0
 20
0.0
 30
0.0
  0
VERTEX
  8
0
 10
-3.696283
 20
66.1162
 30
0.0
  0
VERTEX
  8
0
 10
180.760605
 20
66.1162
 30
0.0
  0
SEQEND
  8
0
  0
ENDBLK
  0
ENDSEC
  0
SECTION
  2
ENTITIES
  0
INSERT
  2
SKETCH
  8
0
 10
0.0
 20
0.0
 30
0.0
  0
INSERT
  2
SKETCH005
  8
0
 10
0.0
 20
0.0
 30
0.0
  0
INSERT
  2
SKETCH006
  8
0
 10
0.0
 20
0.0
 30
0.0
  0
INSERT
  2
SKETCH003
  8
0
 10
0.0
 20
0.0
 30
0.0
  0
ENDSEC
  0
EOF
