  0
SECTION
  2
HEADER
  9
$ACADVER
  1
AC1009
  9
$INSBASE
 10
0.0
 20
0.0
 30
0.0
  9
$EXTMIN
 10
0.0
 20
0.0
 30
0.0
  9
$EXTMAX
 10
0.0
 20
0.0
 30
0.0
  0
ENDSEC
  0
SECTION
  2
TABLES
  0
TABLE
  2
VPORT
 70
0
  0
ENDTAB
  0
TABLE
  2
LTYPE
 70
1
  0
LTYPE
  2
CONTINUOUS
 70
0
  3
Solid line
 72
65
 73
0
 40
0.0
  0
ENDTAB
  0
TABLE
  2
LAYER
 70
1
  0
LAYER
  2
0
 70
64
 62
7
  6
continuous
  0
ENDTAB
  0
TABLE
  2
STYLE
 70
1
  0
STYLE
  2
STANDARD
 70
0
 40
0
 41
1.0
 50
0.0
 71
0
 42
1
 3
ARIAL.TTF
 4

  0
ENDTAB
  0
TABLE
  2
VIEW
 70
0
  0
ENDTAB
  0
ENDSEC
  0
SECTION
  2
BLOCKS
  0
BLOCK
  8
0
  2
SKETCH003
 70
0
 10
0.0
 20
0.0
 30
0.0
  3
SKETCH003
  0
CIRCLE
  8
0
 62
7
 10
130.24
 20
33.25
 30
0.0
 40
4.572
  0
CIRCLE
  8
0
 62
7
 10
130.24
 20
44.2350733678
 30
0.0
 40
1.5
  0
ENDBLK
  0
BLOCK
  8
0
  2
SKETCH004
 70
0
 10
0.0
 20
0.0
 30
0.0
  3
SKETCH004
  0
CIRCLE
  8
0
 62
7
 10
135.65
 20
95.0
 30
0.0
 40
1.8
  0
CIRCLE
  8
0
 62
7
 10
135.65
 20
77.0
 30
0.0
 40
1.8
  0
CIRCLE
  8
0
 62
7
 10
105.15
 20
95.0
 30
0.0
 40
1.8
  0
CIRCLE
  8
0
 62
7
 10
105.15
 20
77.0
 30
0.0
 40
1.8
  0
POLYLINE
  8
0
 62
7
 70
1
 66
1
 10
0.0
 20
0.0
 30
0.0
  0
VERTEX
  8
0
 10
99.4
 20
93.0
 30
0.0
  0
VERTEX
  8
0
 10
141.4
 20
93.0
 30
0.0
  0
VERTEX
  8
0
 10
141.4
 20
79.0
 30
0.0
  0
VERTEX
  8
0
 10
99.4
 20
79.0
 30
0.0
  0
SEQEND
  8
0
  0
ENDBLK
  0
BLOCK
  8
0
  2
SKETCH013
 70
0
 10
0.0
 20
0.0
 30
0.0
  3
SKETCH013
  0
CIRCLE
  8
0
 62
7
 10
31.75
 20
79.375
 30
0.0
 40
3.5
  0
CIRCLE
  8
0
 62
7
 10
31.75
 20
86.375
 30
0.0
 40
1.55
  0
ENDBLK
  0
BLOCK
  8
0
  2
SKETCH014
 70
0
 10
0.0
 20
0.0
 30
0.0
  3
SKETCH014
  0
CIRCLE
  8
0
 62
7
 10
63.5
 20
79.375
 30
0.0
 40
3.5
  0
CIRCLE
  8
0
 62
7
 10
63.5
 20
86.375
 30
0.0
 40
1.55
  0
ENDBLK
  0
ENDSEC
  0
SECTION
  2
ENTITIES
  0
CIRCLE
  8
0
 62
7
 10
19.0
 20
107.95
 30
0.0
 40
4.0
  0
CIRCLE
  8
0
 62
7
 10
156.65
 20
76.25
 30
0.0
 40
3.4
  0
POLYLINE
  8
0
 62
7
 70
1
 66
1
 10
0.0
 20
0.0
 30
0.0
  0
VERTEX
  8
0
 10
0.0
 20
0.0
 30
0.0
  0
VERTEX
  8
0
 10
177.8
 20
0.0
 30
0.0
  0
VERTEX
  8
0
 10
177.8
 20
127.0
 30
0.0
  0
VERTEX
  8
0
 10
0.0
 20
127.0
 30
0.0
  0
SEQEND
  8
0
  0
INSERT
  2
SKETCH003
  8
0
 10
0.0
 20
0.0
 30
0.0
  0
INSERT
  2
SKETCH004
  8
0
 10
0.0
 20
0.0
 30
0.0
  0
CIRCLE
  8
0
 62
7
 10
44.5
 20
107.95
 30
0.0
 40
4.0
  0
CIRCLE
  8
0
 62
7
 10
30.5
 20
52.0
 30
0.0
 40
4.0
  0
CIRCLE
  8
0
 62
7
 10
30.5
 20
33.25
 30
0.0
 40
4.0
  0
CIRCLE
  8
0
 62
7
 10
30.5
 20
14.25
 30
0.0
 40
4.0
  0
CIRCLE
  8
0
 62
7
 10
17.5
 20
52.25
 30
0.0
 40
3.4
  0
CIRCLE
  8
0
 62
7
 10
17.5
 20
33.25
 30
0.0
 40
3.4
  0
CIRCLE
  8
0
 62
7
 10
17.5
 20
14.25
 30
0.0
 40
3.4
  0
CIRCLE
  8
0
 62
7
 10
156.65
 20
95.25
 30
0.0
 40
3.4
  0
INSERT
  2
SKETCH013
  8
0
 10
0.0
 20
0.0
 30
0.0
  0
INSERT
  2
SKETCH014
  8
0
 10
0.0
 20
0.0
 30
0.0
  0
ENDSEC
  0
EOF
