<?xml version="1.0" encoding="UTF-8" standalone="no"?>
<!-- Created with Inkscape (http://www.inkscape.org/) -->

<svg
   xmlns:dc="http://purl.org/dc/elements/1.1/"
   xmlns:cc="http://creativecommons.org/ns#"
   xmlns:rdf="http://www.w3.org/1999/02/22-rdf-syntax-ns#"
   xmlns:svg="http://www.w3.org/2000/svg"
   xmlns="http://www.w3.org/2000/svg"
   xmlns:sodipodi="http://sodipodi.sourceforge.net/DTD/sodipodi-0.dtd"
   xmlns:inkscape="http://www.inkscape.org/namespaces/inkscape"
   width="744.09448"
   height="1052.3622"
   id="svg2"
   version="1.1"
   inkscape:version="0.48.2 r9819"
   sodipodi:docname="SFCoaster.svg">
  <defs
     id="defs4" />
  <sodipodi:namedview
     id="base"
     pagecolor="#ffffff"
     bordercolor="#666666"
     borderopacity="1.0"
     inkscape:pageopacity="0.0"
     inkscape:pageshadow="2"
     inkscape:zoom="1.979899"
     inkscape:cx="189.86178"
     inkscape:cy="180.64703"
     inkscape:document-units="px"
     inkscape:current-layer="layer1"
     showgrid="true"
     showguides="true"
     inkscape:guide-bbox="true"
     units="px"
     inkscape:snap-global="true"
     inkscape:window-width="1920"
     inkscape:window-height="1058"
     inkscape:window-x="-8"
     inkscape:window-y="-8"
     inkscape:window-maximized="1">
    <inkscape:grid
       type="xygrid"
       id="grid2985"
       empspacing="4"
       visible="true"
       enabled="true"
       snapvisiblegridlinesonly="true"
       units="in"
       spacingx="0.0625in"
       spacingy="0.0625in" />
  </sodipodi:namedview>
  <metadata
     id="metadata7">
    <rdf:RDF>
      <cc:Work
         rdf:about="">
        <dc:format>image/svg+xml</dc:format>
        <dc:type
           rdf:resource="http://purl.org/dc/dcmitype/StillImage" />
        <dc:title></dc:title>
      </cc:Work>
    </rdf:RDF>
  </metadata>
  <g
     inkscape:label="Layer 1"
     inkscape:groupmode="layer"
     id="layer1"
     transform="translate(0,0.00246956)">
    <path
       sodipodi:type="arc"
       style="fill:none;stroke:#000000;stroke-width:0.99772984;stroke-linejoin:miter;stroke-miterlimit:4;stroke-opacity:1;stroke-dasharray:none"
       id="path2989"
       sodipodi:cx="157.85715"
       sodipodi:cy="894.86218"
       sodipodi:rx="157.85715"
       sodipodi:ry="156.78572"
       d="m 315.71429,894.86218 a 157.85715,156.78572 0 1 1 -315.71429,0 157.85715,156.78572 0 1 1 315.71429,0 z"
       transform="matrix(1.033371,0,0,1.0404328,0,-41.809279)" />
    <path
       sodipodi:type="arc"
       style="fill:none;stroke:#000000;stroke-width:1.03585529;stroke-linejoin:miter;stroke-miterlimit:4;stroke-opacity:1;stroke-dasharray:none"
       id="path2989-1"
       sodipodi:cx="157.85715"
       sodipodi:cy="894.86218"
       sodipodi:rx="157.85715"
       sodipodi:ry="156.78572"
       d="m 315.71429,894.86218 a 157.85715,156.78572 0 1 1 -315.71429,0 157.85715,156.78572 0 1 1 315.71429,0 z"
       transform="matrix(0.96210405,0,0,0.96867878,11.249999,22.400705)" />
    <path
       sodipodi:type="arc"
       style="fill:none;stroke:#000000;stroke-width:1.21600401;stroke-linejoin:miter;stroke-miterlimit:4;stroke-opacity:1;stroke-dasharray:none"
       id="path2989-1-7"
       sodipodi:cx="157.85715"
       sodipodi:cy="894.86218"
       sodipodi:rx="157.85715"
       sodipodi:ry="156.78572"
       d="m 315.71429,894.86218 a 157.85715,156.78572 0 1 1 -315.71429,0 157.85715,156.78572 0 1 1 315.71429,0 z"
       transform="matrix(0.81957011,0,0,0.82517081,33.749999,150.82056)" />
    <path
       sodipodi:type="arc"
       style="fill:none;stroke:#000000;stroke-width:1.27127695;stroke-linejoin:miter;stroke-miterlimit:4;stroke-opacity:1;stroke-dasharray:none"
       id="path2989-1-7-4"
       sodipodi:cx="157.85715"
       sodipodi:cy="894.86218"
       sodipodi:rx="157.85715"
       sodipodi:ry="156.78572"
       d="m 315.71429,894.86218 a 157.85715,156.78572 0 1 1 -315.71429,0 157.85715,156.78572 0 1 1 315.71429,0 z"
       transform="matrix(0.78393663,0,0,0.78929383,39.374999,182.92552)" />
    <path
       id="path3065"
       style="fill:none;stroke:#000000;stroke-width:1;stroke-miterlimit:4;stroke-opacity:1;stroke-dasharray:none"
       d="m 229.49179,993.69486 7.23251,-7.88956 5.55388,-7.43014 4.83161,-7.95804 4.06177,-8.43786 3.24284,-8.86909 2.37684,-9.25427 1.46122,-9.58832 0.49754,-9.8753 -0.14779,-7.11278 -0.44389,-6.77671 -0.73896,-6.44063 -1.03354,-6.10506 -1.32761,-5.77051 -1.61964,-5.43695 -1.9122,-5.10291 -2.20373,-4.77087 -2.49528,-4.43835 -2.78427,-4.10682 -3.0743,-3.7758 -3.36279,-3.44631 -3.6513,-3.1158 -3.93726,-2.7863 -4.22475,-2.45883 -4.51123,-2.12983 0.3543,0.52486 0.31988,0.52082 0.29002,0.51778 0.25864,0.5188 0.22979,0.52031 0.20245,0.52537 0.17715,0.53195 0.15235,0.54208 0.12906,0.55321 0.10731,0.56789 0.0865,0.58358 0.0688,0.60332 0.0496,0.62407 0.0349,0.64685 0.0187,0.67418 0.007,0.701 -0.0602,1.18133 -0.17613,1.14641 -0.28699,1.10743 -0.39225,1.06087 -0.49045,1.00874 -0.58358,0.95205 -0.67114,0.88827 -0.75314,0.81995 -0.82754,0.74453 -0.89789,0.66457 -0.96116,0.57801 -1.02038,0.48589 -1.0715,0.3877 -1.11806,0.28446 -1.15906,0.17512 -1.19348,0.0592 -3.65535,-0.16956 -3.54753,-0.49905 -3.42454,-0.81033 -3.28232,-1.10592 -3.12339,-1.3848 -2.94473,-1.64748 -2.74935,-1.89398 -2.53576,-2.12326 -2.30446,-2.33735 -2.05594,-2.53323 -1.7887,-2.71393 -1.50222,-2.8774 -1.20006,-3.0247 -0.88018,-3.15629 -0.54055,-3.26915 -0.18424,-3.36786 0.13261,-2.01292 0.39175,-1.95319 0.63521,-1.88538 0.86702,-1.80742 1.08617,-1.71885 1.29268,-1.62066 1.48502,-1.51387 1.66621,-1.39694 1.83274,-1.26789 1.9871,-1.13274 2.12832,-0.98343 2.25637,-0.82855 2.37228,-0.66051 2.47553,-0.48387 2.56461,-0.29761 2.64104,-0.10174 0.70151,0.004 0.70607,0.0122 0.70303,0.0177 0.69442,0.0228 0.67823,0.0284 0.65393,0.0299 0.62509,0.0329 0.58813,0.0339 0.54511,0.0339 0.4945,0.0329 0.43731,0.0304 0.37302,0.0283 0.30217,0.0223 0.22422,0.0182 0.13919,0.0121 0.0481,0.004 -1.50071,-1.61357 -1.6075,-1.53108 -1.71328,-1.44503 -1.81401,-1.35746 -1.9127,-1.26535 -2.00786,-1.1707 -2.09997,-1.07353 -2.18956,-0.97331 -2.27612,-0.86853 -2.35912,-0.76326 -2.43908,-0.65444 -2.51603,-0.54106 -2.59042,-0.42668 -2.6623,-0.30773 -2.72911,-0.18727 -2.79439,-0.0633 -5.71129,0.18474 -5.45771,0.54663 -5.18743,0.89536 -4.90146,1.23397 -4.6003,1.55891 -4.28347,1.87221 -3.95042,2.17388 -3.60068,2.46338 -3.23727,2.74075 -2.85615,3.00596 -2.46035,3.25955 -2.04835,3.50097 -1.62116,3.73025 -1.17627,3.94789 -0.71822,4.15339 -0.24294,4.34723 0.0506,2.23056 0.14982,2.20171 0.2475,2.16881 0.34266,2.1349 0.43376,2.09643 0.52436,2.05696 0.61192,2.01342 0.69645,1.96737 0.77845,1.91928 0.85942,1.86816 0.93788,1.81452 1.01177,1.75731 1.08466,1.6981 1.15603,1.63636 1.22232,1.57105 1.28864,1.50425 0.35885,0.40643 0.35885,0.40643 0.35936,0.40694 0.35886,0.40643 0.35834,0.40694 0.35886,0.40643 0.35834,0.40693 0.35987,0.40542 0.35885,0.40694 0.35835,0.40643 0.35885,0.40694 0.35835,0.40643 0.35885,0.40643 0.35936,0.40693 0.35886,0.40643 0.35834,0.40694 0.55575,0.62205 0.55523,0.62306 0.55625,0.62255 0.55574,0.62306 0.55524,0.62204 0.55523,0.62306 0.55524,0.62255 0.55675,0.62306 0.55524,0.62205 0.55523,0.62306 0.55524,0.62255 0.55574,0.62306 0.55524,0.62204 0.55624,0.62306 0.55524,0.62255 0.55574,0.62306 1.20461,1.37417 1.154,1.3519 1.10086,1.33672 1.04265,1.3271 0.9809,1.32457 0.91611,1.32811 0.84627,1.33874 0.77338,1.35443 0.69695,1.37822 0.61547,1.40707 0.53195,1.443 0.44338,1.48451 0.35177,1.53462 0.25611,1.58776 0.15639,1.65103 0.0526,1.71834 -0.0385,1.36759 -0.11691,1.3104 -0.19082,1.25371 -0.26673,1.20107 -0.3376,1.15046 -0.41048,1.10237 -0.48033,1.05581 -0.54764,1.0138 -0.61648,0.97179 -0.68177,0.93382 -0.74554,0.8979 -0.80831,0.86398 -0.87005,0.8331 -0.9308,0.80477 -0.98849,0.77793 -1.04669,0.75466 -0.88373,0.58257 -0.92066,0.54966 -0.95458,0.51627 -0.9885,0.48083 -1.0224,0.44692 -1.0553,0.41149 -1.08618,0.37455 -1.11806,0.3381 -1.14843,0.30014 -1.1788,0.26269 -1.20765,0.22422 -1.236,0.18423 -1.26433,0.14425 -1.29016,0.10427 -1.31697,0.0633 -1.34229,0.0208 -2.90878,-0.0997 -2.77972,-0.29407 -2.64256,-0.48083 -2.4973,-0.66254 -2.34292,-0.83868 -2.18197,-1.0062 -2.0114,-1.16919 -1.83476,-1.32355 -1.649,-1.47439 -1.45465,-1.6161 -1.25371,-1.75175 -1.04315,-1.88285 -0.82552,-2.00482 -0.59977,-2.12275 -0.36594,-2.23258 -0.1235,-2.33736 0.085,-1.58826 0.24953,-1.54272 0.40441,-1.48805 0.55371,-1.42732 0.6919,-1.35746 0.82349,-1.28003 0.94698,-1.19449 1.06189,-1.10237 1.16817,-1.00166 1.26636,-0.89333 1.35696,-0.77743 1.43845,-0.65343 1.51285,-0.52133 1.57764,-0.38213 1.63433,-0.23536 1.68393,-0.08 0.0101,0 0.0106,0 0.009,0 0.0106,0 0.0101,0 0.0106,0 0.0101,0 0.0106,0 0.009,0 0.0106,0 0.0101,0 0.0106,0 0.0101,0 0.01,0 0.0101,0 0.0101,0 -0.84677,-0.289 -0.85487,-0.27231 -0.86247,-0.25509 -0.86955,-0.23687 -0.87714,-0.21967 -0.88422,-0.20245 -0.8903,-0.18323 -0.89739,-0.165 -0.90346,-0.14678 -0.90953,-0.12805 -0.91561,-0.10933 -0.92168,-0.0891 -0.92624,-0.0698 -0.93281,-0.0506 -0.93738,-0.0304 -0.94243,-0.0101 -4.41861,0.22321 -4.290544,0.65494 -4.140732,1.06441 -3.970669,1.45364 -3.777829,1.81957 -3.56272,2.16426 -3.326859,2.48767 -3.068221,2.78934 -2.789337,3.06873 -2.487173,3.32635 -2.164761,3.56323 -1.819573,3.77631 -1.452622,3.97067 -1.064413,4.14073 -0.655451,4.29055 -0.223208,4.4186 0.01822,9.79482 0.01772,9.79432 -6.2e-5,-5.3e-4 -0.01577,5.65289"
       inkscape:connector-curvature="0"
       sodipodi:nodetypes="ccccccccccccccccccccccccccccccccccccccccccccccccccccccccccccccccccccccccccccccccccccccccccccccccccccccccccccccccccccccccccccccccccccccccccccccccccccccccccccccccccccccccccccccccccccccccccccccccccccccccccccccccccccccccccccccccccccccccccccccccccccccccccccccccccccccccccccccccccccccccccccccccccccccccccccccccccccccccccccc" />
    <path
       sodipodi:type="arc"
       style="fill:none;stroke:#000000;stroke-width:1.03585529;stroke-linejoin:miter;stroke-miterlimit:4;stroke-opacity:1;stroke-dasharray:none"
       id="path2989-1-4"
       sodipodi:cx="157.85715"
       sodipodi:cy="894.86218"
       sodipodi:rx="157.85715"
       sodipodi:ry="156.78572"
       d="m 315.71429,894.86218 a 157.85715,156.78572 0 1 1 -315.71429,0 157.85715,156.78572 0 1 1 315.71429,0 z"
       transform="matrix(0.92647056,0,0,0.93280179,16.874999,54.505667)" />
  </g>
</svg>
