  0
SECTION
  2
HEADER
  9
$ACADVER
  1
AC1009
  9
$INSBASE
 10
0.0
 20
0.0
 30
0.0
  9
$EXTMIN
 10
0.0
 20
0.0
 30
0.0
  9
$EXTMAX
 10
0.0
 20
0.0
 30
0.0
  0
ENDSEC
  0
SECTION
  2
TABLES
  0
TABLE
  2
VPORT
 70
0
  0
ENDTAB
  0
TABLE
  2
LTYPE
 70
1
  0
LTYPE
  2
CONTINUOUS
 70
0
  3
Solid line
 72
65
 73
0
 40
0.0
  0
ENDTAB
  0
TABLE
  2
LAYER
 70
1
  0
LAYER
  2
0
 70
64
 62
7
  6
continuous
  0
ENDTAB
  0
TABLE
  2
STYLE
 70
1
  0
STYLE
  2
STANDARD
 70
0
 40
0
 41
1.0
 50
0.0
 71
0
 42
1
 3
ARIAL.TTF
 4

  0
ENDTAB
  0
TABLE
  2
VIEW
 70
0
  0
ENDTAB
  0
ENDSEC
  0
SECTION
  2
BLOCKS
  0
BLOCK
  8
0
  2
SKETCH006
 70
0
 10
0.0
 20
0.0
 30
0.0
  3
SKETCH006
  0
CIRCLE
  8
0
 62
7
 10
12.7
 20
57.15
 30
0.0
 40
1.55
  0
CIRCLE
  8
0
 62
7
 10
12.7
 20
12.7
 30
0.0
 40
1.55
  0
CIRCLE
  8
0
 62
7
 10
135.89
 20
44.45
 30
0.0
 40
1.55
  0
CIRCLE
  8
0
 62
7
 10
135.89
 20
12.7
 30
0.0
 40
1.55
  0
ENDBLK
  0
BLOCK
  8
0
  2
SKETCH011
 70
0
 10
0.0
 20
0.0
 30
0.0
  3
SKETCH011
  0
CIRCLE
  8
0
 62
7
 10
139.7
 20
57.15
 30
-1.55530143492e-15
 40
1.55
  0
CIRCLE
  8
0
 62
7
 10
139.7
 20
12.7
 30
-1.55530143492e-15
 40
1.55
  0
CIRCLE
  8
0
 62
7
 10
16.51
 20
44.45
 30
-1.66417253536e-14
 40
1.55
  0
CIRCLE
  8
0
 62
7
 10
16.51
 20
12.7
 30
-1.66417253536e-14
 40
1.55
  0
ENDBLK
  0
ENDSEC
  0
SECTION
  2
ENTITIES
  0
POLYLINE
  8
0
 62
7
 70
1
 66
1
 10
0.0
 20
0.0
 30
0.0
  0
VERTEX
  8
0
 10
148.85
 20
59.0495244877
 30
0.0
  0
VERTEX
  8
0
 10
148.85
 20
0.0
 30
0.0
  0
VERTEX
  8
0
 10
0.0
 20
0.0
 30
0.0
  0
VERTEX
  8
0
 10
0.0
 20
69.85
 30
0.0
 42
-0.440010530892
  0
VERTEX
  8
0
 10
13.8068779329
 20
82.5016726658
 30
0.0
  0
VERTEX
  8
0
 10
137.256877933
 20
71.7011971535
 30
0.0
 42
-0.388878731853
  0
SEQEND
  8
0
  0
INSERT
  2
SKETCH006
  8
0
 10
0.0
 20
0.0
 30
0.0
  0
POLYLINE
  8
0
 62
7
 70
1
 66
1
 10
0.0
 20
0.0
 30
0.0
  0
VERTEX
  8
0
 10
19.047712
 20
12.702574
 30
0.0
  0
VERTEX
  8
0
 10
19.047712
 20
68.738861
 30
0.0
  0
VERTEX
  8
0
 10
129.764236
 20
59.050869
 30
0.0
  0
VERTEX
  8
0
 10
129.764236
 20
12.702574
 30
0.0
  0
SEQEND
  8
0
  0
POLYLINE
  8
0
 62
7
 70
1
 66
1
 10
0.0
 20
0.0
 30
0.0
  0
VERTEX
  8
0
 10
3.55
 20
59.0495244877
 30
-1.82288676053e-14
  0
VERTEX
  8
0
 10
3.55
 20
0.0
 30
-1.82288676053e-14
  0
VERTEX
  8
0
 10
152.4
 20
0.0
 30
0.0
  0
VERTEX
  8
0
 10
152.4
 20
69.85
 30
3.94430452611e-31
 42
0.440010530892
  0
VERTEX
  8
0
 10
138.593122067
 20
82.5016726658
 30
-1.69085488667e-15
  0
VERTEX
  8
0
 10
15.1431220671
 20
71.7011971535
 30
-1.68091196221e-14
 42
0.388878731853
  0
SEQEND
  8
0
  0
POLYLINE
  8
0
 62
7
 70
1
 66
1
 10
0.0
 20
0.0
 30
0.0
  0
VERTEX
  8
0
 10
133.352288
 20
12.702574
 30
-2.33267195319e-15
  0
VERTEX
  8
0
 10
133.352288
 20
68.738861
 30
-2.33267195319e-15
  0
VERTEX
  8
0
 10
22.635764
 20
59.050869
 30
-1.58915356261e-14
  0
VERTEX
  8
0
 10
22.635764
 20
12.702574
 30
-1.58915356261e-14
  0
SEQEND
  8
0
  0
INSERT
  2
SKETCH011
  8
0
 10
0.0
 20
0.0
 30
0.0
  0
ENDSEC
  0
EOF
