<?xml version="1.0" encoding="UTF-8"?>
<!DOCTYPE svg PUBLIC "-//W3C//DTD SVG 1.1//EN" "http://www.w3.org/Graphics/SVG/1.1/DTD/svg11.dtd"><svg version="1.1" viewBox="0 0 60960 45720" preserveAspectRatio="xMidYMid" fill-rule="evenodd" xmlns="http://www.w3.org/2000/svg" xmlns:xlink="http://www.w3.org/1999/xlink"><g visibility="visible" id="Default"><desc>Master slide</desc><g style="stroke:none;fill:none"><rect x="0" y="0" width="60960" height="45720"/></g></g><g visibility="visible" id="Holes"><desc>Slide</desc><g><desc>Drawing</desc><g><g style="stroke:rgb(0,0,0);fill:none"><path style="fill:none" d="M 2746,8792 C 2685,8792 2634,8778 2581,8748 2528,8717 2491,8680 2460,8627 2430,8574 2416,8523 2416,8462 2416,8401 2430,8350 2460,8297 2491,8244 2528,8207 2581,8176 2634,8146 2685,8132 2746,8132 2807,8132 2858,8146 2911,8176 2964,8207 3001,8244 3032,8297 3062,8350 3076,8401 3076,8462 3076,8523 3062,8574 3032,8627 3001,8680 2964,8717 2911,8748 2858,8778 2807,8792 2746,8792"/></g><g/></g></g><g><desc>Drawing</desc><g><g style="stroke:rgb(0,0,0);fill:none"><path style="fill:none" d="M 2746,10697 C 2685,10697 2634,10683 2581,10653 2528,10622 2491,10585 2460,10532 2430,10479 2416,10428 2416,10367 2416,10306 2430,10255 2460,10202 2491,10149 2528,10112 2581,10081 2634,10051 2685,10037 2746,10037 2807,10037 2858,10051 2911,10081 2964,10112 3001,10149 3032,10202 3062,10255 3076,10306 3076,10367 3076,10428 3062,10479 3032,10532 3001,10585 2964,10622 2911,10653 2858,10683 2807,10697 2746,10697"/></g><g/></g></g><g><desc>Drawing</desc><g><g style="stroke:rgb(0,0,0);fill:none"><path style="fill:none" d="M 2746,12602 C 2685,12602 2634,12588 2581,12558 2528,12527 2491,12490 2460,12437 2430,12384 2416,12333 2416,12272 2416,12211 2430,12160 2460,12107 2491,12054 2528,12017 2581,11986 2634,11956 2685,11942 2746,11942 2807,11942 2858,11956 2911,11986 2964,12017 3001,12054 3032,12107 3062,12160 3076,12211 3076,12272 3076,12333 3062,12384 3032,12437 3001,12490 2964,12527 2911,12558 2858,12588 2807,12602 2746,12602"/></g><g/></g></g><g><desc>Drawing</desc><g><g style="stroke:rgb(0,0,0);fill:none"><path style="fill:none" d="M 4019,8856 C 3946,8856 3884,8840 3822,8803 3759,8767 3714,8722 3678,8659 3641,8597 3625,8535 3625,8463 3625,8390 3641,8328 3678,8266 3714,8203 3759,8158 3822,8122 3884,8085 3946,8069 4019,8069 4091,8069 4153,8085 4215,8122 4278,8158 4323,8203 4359,8266 4396,8328 4412,8390 4412,8463 4412,8535 4396,8597 4359,8659 4323,8722 4278,8767 4215,8803 4153,8840 4091,8856 4019,8856"/></g><g/></g></g><g><desc>Drawing</desc><g><g style="stroke:rgb(0,0,0);fill:none"><path style="fill:none" d="M 4019,10761 C 3946,10761 3884,10745 3822,10708 3759,10672 3714,10627 3678,10564 3641,10502 3625,10440 3625,10368 3625,10295 3641,10233 3678,10171 3714,10108 3759,10063 3822,10027 3884,9990 3946,9974 4019,9974 4091,9974 4153,9990 4215,10027 4278,10063 4323,10108 4359,10171 4396,10233 4412,10295 4412,10368 4412,10440 4396,10502 4359,10564 4323,10627 4278,10672 4215,10708 4153,10745 4091,10761 4019,10761"/></g><g/></g></g><g><desc>Drawing</desc><g><g style="stroke:rgb(0,0,0);fill:none"><path style="fill:none" d="M 4019,12666 C 3946,12666 3884,12650 3822,12613 3759,12577 3714,12532 3678,12469 3641,12407 3625,12345 3625,12273 3625,12200 3641,12138 3678,12076 3714,12013 3759,11968 3822,11932 3884,11895 3946,11879 4019,11879 4091,11879 4153,11895 4215,11932 4278,11968 4323,12013 4359,12076 4396,12138 4412,12200 4412,12273 4412,12345 4396,12407 4359,12469 4323,12532 4278,12577 4215,12613 4153,12650 4091,12666 4019,12666"/></g><g/></g></g><g><desc>Drawing</desc><g><g style="stroke:rgb(0,0,0);fill:none"><path style="fill:none" d="M 12076,4418 C 12042,4418 12013,4411 11984,4394 11954,4378 11933,4357 11916,4329 11899,4301 11891,4273 11891,4240 11891,4207 11899,4179 11916,4151 11933,4123 11954,4102 11984,4086 12013,4069 12042,4062 12076,4062 12110,4062 12139,4069 12169,4086 12198,4102 12219,4123 12236,4151 12253,4179 12261,4207 12261,4240 12261,4273 12253,4301 12236,4329 12219,4357 12198,4378 12169,4394 12139,4411 12110,4418 12076,4418"/></g><g/></g></g><g><desc>Drawing</desc><g><g style="stroke:rgb(0,0,0);fill:none"><path style="fill:none" d="M 8904,4418 C 8870,4418 8841,4411 8812,4394 8782,4378 8761,4357 8744,4329 8727,4301 8719,4273 8719,4240 8719,4207 8727,4179 8744,4151 8761,4123 8782,4102 8812,4086 8841,4069 8870,4062 8904,4062 8938,4062 8967,4069 8997,4086 9026,4102 9047,4123 9064,4151 9081,4179 9089,4207 9089,4240 9089,4273 9081,4301 9064,4329 9047,4357 9026,4378 8997,4394 8967,4411 8938,4418 8904,4418"/></g><g/></g></g><g><desc>Drawing</desc><g><g style="stroke:rgb(0,0,0);fill:none"><path style="fill:none" d="M 12076,6196 C 12042,6196 12013,6189 11984,6172 11954,6156 11933,6135 11916,6107 11899,6079 11891,6051 11891,6018 11891,5985 11899,5957 11916,5929 11933,5901 11954,5880 11984,5864 12013,5847 12042,5840 12076,5840 12110,5840 12139,5847 12169,5864 12198,5880 12219,5901 12236,5929 12253,5957 12261,5985 12261,6018 12261,6051 12253,6079 12236,6107 12219,6135 12198,6156 12169,6172 12139,6189 12110,6196 12076,6196"/></g><g/></g></g><g><desc>Drawing</desc><g><g style="stroke:rgb(0,0,0);fill:none"><path style="fill:none" d="M 8904,6196 C 8870,6196 8841,6189 8812,6172 8782,6156 8761,6135 8744,6107 8727,6079 8719,6051 8719,6018 8719,5985 8727,5957 8744,5929 8761,5901 8782,5880 8812,5864 8841,5847 8870,5840 8904,5840 8938,5840 8967,5847 8997,5864 9026,5880 9047,5901 9064,5929 9081,5957 9089,5985 9089,6018 9089,6051 9081,6079 9064,6107 9047,6135 9026,6156 8997,6172 8967,6189 8938,6196 8904,6196"/></g><g/></g></g><g><desc>Drawing</desc><g><g style="stroke:rgb(0,0,0);fill:none"><path style="fill:none" d="M 10490,5790 L 8375,5790 8375,4469 12605,4469 12605,5790 10490,5790"/></g><g/></g></g><g><desc>Drawing</desc><g><g style="stroke:rgb(0,0,0);fill:none"><path style="fill:none" d="M 12076,4418 C 12042,4418 12013,4411 11984,4394 11954,4378 11933,4357 11916,4329 11899,4301 11891,4273 11891,4240 11891,4207 11899,4179 11916,4151 11933,4123 11954,4102 11984,4086 12013,4069 12042,4062 12076,4062 12110,4062 12139,4069 12169,4086 12198,4102 12219,4123 12236,4151 12253,4179 12261,4207 12261,4240 12261,4273 12253,4301 12236,4329 12219,4357 12198,4378 12169,4394 12139,4411 12110,4418 12076,4418"/></g><g/></g></g><g><desc>Drawing</desc><g><g style="stroke:rgb(0,0,0);fill:none"><path style="fill:none" d="M 8904,4418 C 8870,4418 8841,4411 8812,4394 8782,4378 8761,4357 8744,4329 8727,4301 8719,4273 8719,4240 8719,4207 8727,4179 8744,4151 8761,4123 8782,4102 8812,4086 8841,4069 8870,4062 8904,4062 8938,4062 8967,4069 8997,4086 9026,4102 9047,4123 9064,4151 9081,4179 9089,4207 9089,4240 9089,4273 9081,4301 9064,4329 9047,4357 9026,4378 8997,4394 8967,4411 8938,4418 8904,4418"/></g><g/></g></g><g><desc>Drawing</desc><g><g style="stroke:rgb(0,0,0);fill:none"><path style="fill:none" d="M 12076,6196 C 12042,6196 12013,6189 11984,6172 11954,6156 11933,6135 11916,6107 11899,6079 11891,6051 11891,6018 11891,5985 11899,5957 11916,5929 11933,5901 11954,5880 11984,5864 12013,5847 12042,5840 12076,5840 12110,5840 12139,5847 12169,5864 12198,5880 12219,5901 12236,5929 12253,5957 12261,5985 12261,6018 12261,6051 12253,6079 12236,6107 12219,6135 12198,6156 12169,6172 12139,6189 12110,6196 12076,6196"/></g><g/></g></g><g><desc>Drawing</desc><g><g style="stroke:rgb(0,0,0);fill:none"><path style="fill:none" d="M 8904,6196 C 8870,6196 8841,6189 8812,6172 8782,6156 8761,6135 8744,6107 8727,6079 8719,6051 8719,6018 8719,5985 8727,5957 8744,5929 8761,5901 8782,5880 8812,5864 8841,5847 8870,5840 8904,5840 8938,5840 8967,5847 8997,5864 9026,5880 9047,5901 9064,5929 9081,5957 9089,5985 9089,6018 9089,6051 9081,6079 9064,6107 9047,6135 9026,6156 8997,6172 8967,6189 8938,6196 8904,6196"/></g><g/></g></g><g><desc>Drawing</desc><g><g style="stroke:rgb(0,0,0);fill:none"><path style="fill:none" d="M 14125,4506 C 14061,4506 14008,4492 13953,4462 13898,4431 13859,4394 13827,4341 13795,4288 13781,4237 13781,4176 13781,4115 13795,4064 13827,4011 13859,3958 13898,3921 13953,3890 14008,3860 14061,3846 14125,3846 14188,3846 14241,3860 14296,3890 14351,3921 14390,3958 14422,4011 14454,4064 14468,4115 14468,4176 14468,4237 14454,4288 14422,4341 14390,4394 14351,4431 14296,4462 14241,4492 14188,4506 14125,4506"/></g><g/></g></g><g><desc>Drawing</desc><g><g style="stroke:rgb(0,0,0);fill:none"><path style="fill:none" d="M 14125,6411 C 14061,6411 14008,6397 13953,6367 13898,6336 13859,6299 13827,6246 13795,6193 13781,6142 13781,6081 13781,6020 13795,5969 13827,5916 13859,5863 13898,5826 13953,5795 14008,5765 14061,5751 14125,5751 14188,5751 14241,5765 14296,5795 14351,5826 14390,5863 14422,5916 14454,5969 14468,6020 14468,6081 14468,6142 14454,6193 14422,6246 14390,6299 14351,6336 14296,6367 14241,6397 14188,6411 14125,6411"/></g><g/></g></g><g><desc>Drawing</desc><g><g style="stroke:rgb(0,0,0);fill:none"><path style="fill:none" d="M 12588,10821 C 12504,10821 12432,10802 12360,10760 12287,10718 12234,10665 12192,10593 12150,10520 12131,10448 12131,10364 12131,10280 12150,10208 12192,10136 12234,10063 12287,10010 12360,9968 12432,9926 12504,9907 12588,9907 12672,9907 12744,9926 12817,9968 12889,10010 12942,10063 12984,10136 13026,10208 13045,10280 13045,10364 13045,10448 13026,10520 12984,10593 12942,10665 12889,10718 12817,10760 12744,10802 12672,10821 12588,10821"/></g><g/></g></g><g><desc>Drawing</desc><g><g style="stroke:rgb(0,0,0);fill:none"><path style="fill:none" d="M 12589,9374 C 12560,9374 12537,9368 12512,9354 12488,9340 12470,9322 12456,9298 12442,9273 12436,9250 12436,9222 12436,9193 12442,9170 12456,9145 12470,9121 12488,9103 12512,9089 12537,9075 12560,9069 12589,9069 12617,9069 12640,9075 12665,9089 12689,9103 12707,9121 12721,9145 12735,9170 12741,9193 12741,9222 12741,9250 12735,9273 12721,9298 12707,9322 12689,9340 12665,9354 12640,9368 12617,9374 12589,9374"/></g><g/></g></g><g><desc>Drawing</desc><g><g style="stroke:rgb(0,0,0);fill:none"><path style="fill:none" d="M 2908,6474 C 2835,6474 2773,6458 2711,6421 2648,6385 2603,6340 2567,6277 2530,6215 2514,6153 2514,6081 2514,6008 2530,5946 2567,5884 2603,5821 2648,5776 2711,5740 2773,5703 2835,5687 2908,5687 2980,5687 3042,5703 3104,5740 3167,5776 3212,5821 3248,5884 3285,5946 3301,6008 3301,6081 3301,6153 3285,6215 3248,6277 3212,6340 3167,6385 3104,6421 3042,6458 2980,6474 2908,6474"/></g><g/></g></g><g><desc>Drawing</desc><g><g style="stroke:rgb(0,0,0);fill:none"><path style="fill:none" d="M 5448,6474 C 5375,6474 5313,6458 5251,6421 5188,6385 5143,6340 5107,6277 5070,6215 5054,6153 5054,6081 5054,6008 5070,5946 5107,5884 5143,5821 5188,5776 5251,5740 5313,5703 5375,5687 5448,5687 5520,5687 5582,5703 5644,5740 5707,5776 5752,5821 5788,5884 5825,5946 5841,6008 5841,6081 5841,6153 5825,6215 5788,6277 5752,6340 5707,6385 5644,6421 5582,6458 5520,6474 5448,6474"/></g><g/></g></g></g></svg>