999
DXF created by Inkscape
  0
SECTION
  2
HEADER
  9
$ACADVER
  1
AC1014
  9
$HANDSEED
  5
FFFF
  9
$MEASUREMENT
 70
     1
  0
ENDSEC
  0
SECTION
  2
TABLES
  0
TABLE
  2
VPORT
  5
8
330
0
100
AcDbSymbolTable
 70
     4
  0
VPORT
  5
2E
330
8
100
AcDbSymbolTableRecord
100
AcDbViewportTableRecord
  2
*ACTIVE
 70
     0
 10
0.0
 20
0.0
 11
1.0
 21
1.0
 12
210.0
 22
148.5
 13
0.0
 23
0.0
 14
10.0
 24
10.0
 15
10.0
 25
10.0
 16
0.0
 26
0.0
 36
1.0
 17
0.0
 27
0.0
 37
0.0
 40
341.0
 41
1.24
 42
50.0
 43
0.0
 44
0.0
 50
0.0
 51
0.0
 71
     0
 72
   100
 73
     1
 74
     3
 75
     0
 76
     0
 77
     0
 78
     0
  0
ENDTAB
  0
TABLE
  2
LTYPE
  5
5
330
0
100
AcDbSymbolTable
 70
     1
  0
LTYPE
  5
14
330
5
100
AcDbSymbolTableRecord
100
AcDbLinetypeTableRecord
  2
BYBLOCK
 70
     0
  3

 72
    65
 73
     0
 40
0.0
  0
LTYPE
  5
15
330
5
100
AcDbSymbolTableRecord
100
AcDbLinetypeTableRecord
  2
BYLAYER
 70
     0
  3

 72
    65
 73
     0
 40
0.0
  0
LTYPE
  5
16
330
5
100
AcDbSymbolTableRecord
100
AcDbLinetypeTableRecord
  2
CONTINUOUS
 70
     0
  3
Solid line
 72
    65
 73
     0
 40
0.0
  0
ENDTAB
  0
TABLE
  2
LAYER
  5
2
100
AcDbSymbolTable
 70
1
  0
LAYER
  5
50
100
AcDbSymbolTableRecord
100
AcDbLayerTableRecord
  2
0
 70
0
  6
CONTINUOUS
  0
ENDTAB
  0
TABLE
  2
STYLE
  5
3
330
0
100
AcDbSymbolTable
 70
     1
  0
STYLE
  5
11
330
3
100
AcDbSymbolTableRecord
100
AcDbTextStyleTableRecord
  2
STANDARD
 70
     0
 40
0.0
 41
1.0
 50
0.0
 71
     0
 42
2.5
  3
txt
  4

  0
ENDTAB
  0
TABLE
  2
VIEW
  5
6
330
0
100
AcDbSymbolTable
 70
     0
  0
ENDTAB
  0
TABLE
  2
UCS
  5
7
330
0
100
AcDbSymbolTable
 70
     0
  0
ENDTAB
  0
TABLE
  2
APPID
  5
9
330
0
100
AcDbSymbolTable
 70
     2
  0
APPID
  5
12
330
9
100
AcDbSymbolTableRecord
100
AcDbRegAppTableRecord
  2
ACAD
 70
     0
  0
ENDTAB
  0
TABLE
  2
DIMSTYLE
  5
A
330
0
100
AcDbSymbolTable
 70
     1
  0
DIMSTYLE
105
27
330
A
100
AcDbSymbolTableRecord
100
AcDbDimStyleTableRecord
  2
ISO-25
 70
     0
  3

  4

  5

  6

  7

 40
1.0
 41
2.5
 42
0.625
 43
3.75
 44
1.25
 45
0.0
 46
0.0
 47
0.0
 48
0.0
140
2.5
141
2.5
142
0.0
143
0.03937007874016
144
1.0
145
0.0
146
1.0
147
0.625
 71
     0
 72
     0
 73
     0
 74
     0
 75
     0
 76
     0
 77
     1
 78
     8
170
     0
171
     3
172
     1
173
     0
174
     0
175
     0
176
     0
177
     0
178
     0
270
     2
271
     2
272
     2
273
     2
274
     3
340
11
275
     0
280
     0
281
     0
282
     0
283
     0
284
     8
285
     0
286
     0
287
     3
288
     0
  0
ENDTAB
  0
TABLE
  2
BLOCK_RECORD
  5
1
330
0
100
AcDbSymbolTable
 70
     1
  0
BLOCK_RECORD
  5
1F
330
1
100
AcDbSymbolTableRecord
100
AcDbBlockTableRecord
  2
*MODEL_SPACE
  0
BLOCK_RECORD
  5
1B
330
1
100
AcDbSymbolTableRecord
100
AcDbBlockTableRecord
  2
*PAPER_SPACE
  0
ENDTAB
  0
ENDSEC
  0
SECTION
  2
BLOCKS
  0
BLOCK
  5
20
330
1F
100
AcDbEntity
  8
0
100
AcDbBlockBegin
  2
*MODEL_SPACE
 70
     0
 10
0.0
 20
0.0
 30
0.0
  3
*MODEL_SPACE
  1

  0
ENDBLK
  5
21
330
1F
100
AcDbEntity
  8
0
100
AcDbBlockEnd
  0
BLOCK
  5
1C
330
1B
100
AcDbEntity
 67
     1
  8
0
100
AcDbBlockBegin
  2
*PAPER_SPACE
  1

  0
ENDBLK
  5
1D
330
1B
100
AcDbEntity
 67
     1
  8
0
100
AcDbBlockEnd
  0
ENDSEC
  0
SECTION
  2
ENTITIES
  0
SPLINE
  5
100
100
AcDbEntity
  8
0
 62
7
100
AcDbSpline
 70
8
 71
3
 72
8
 73
4
 74
0
 40
0
 40
0
 40
0
 40
0
 40
1
 40
1
 40
1
 40
1
 10
774.982222
 20
-2453.075556
 30
0.0
 10
757.766667
 20
-2453.075556
 30
0.0
 10
743.373333
 20
-2449.124444
 30
0.0
 10
728.415556
 20
-2440.657778
 30
0.0
  0
SPLINE
  5
101
100
AcDbEntity
  8
0
 62
7
100
AcDbSpline
 70
8
 71
3
 72
8
 73
4
 74
0
 40
0
 40
0
 40
0
 40
0
 40
1
 40
1
 40
1
 40
1
 10
728.415556
 20
-2440.657778
 30
0.0
 10
713.457778
 20
-2431.908889
 30
0.0
 10
703.015556
 20
-2421.466667
 30
0.0
 10
694.266667
 20
-2406.508889
 30
0.0
  0
SPLINE
  5
102
100
AcDbEntity
  8
0
 62
7
100
AcDbSpline
 70
8
 71
3
 72
8
 73
4
 74
0
 40
0
 40
0
 40
0
 40
0
 40
1
 40
1
 40
1
 40
1
 10
694.266667
 20
-2406.508889
 30
0.0
 10
685.800000
 20
-2391.551111
 30
0.0
 10
681.848889
 20
-2377.157778
 30
0.0
 10
681.848889
 20
-2359.942222
 30
0.0
  0
SPLINE
  5
103
100
AcDbEntity
  8
0
 62
7
100
AcDbSpline
 70
8
 71
3
 72
8
 73
4
 74
0
 40
0
 40
0
 40
0
 40
0
 40
1
 40
1
 40
1
 40
1
 10
681.848889
 20
-2359.942222
 30
0.0
 10
681.848889
 20
-2342.726667
 30
0.0
 10
685.800000
 20
-2328.333333
 30
0.0
 10
694.266667
 20
-2313.375556
 30
0.0
  0
SPLINE
  5
104
100
AcDbEntity
  8
0
 62
7
100
AcDbSpline
 70
8
 71
3
 72
8
 73
4
 74
0
 40
0
 40
0
 40
0
 40
0
 40
1
 40
1
 40
1
 40
1
 10
694.266667
 20
-2313.375556
 30
0.0
 10
703.015556
 20
-2298.417778
 30
0.0
 10
713.457778
 20
-2287.975556
 30
0.0
 10
728.415556
 20
-2279.226667
 30
0.0
  0
SPLINE
  5
105
100
AcDbEntity
  8
0
 62
7
100
AcDbSpline
 70
8
 71
3
 72
8
 73
4
 74
0
 40
0
 40
0
 40
0
 40
0
 40
1
 40
1
 40
1
 40
1
 10
728.415556
 20
-2279.226667
 30
0.0
 10
743.373333
 20
-2270.760000
 30
0.0
 10
757.766667
 20
-2266.808889
 30
0.0
 10
774.982222
 20
-2266.808889
 30
0.0
  0
SPLINE
  5
106
100
AcDbEntity
  8
0
 62
7
100
AcDbSpline
 70
8
 71
3
 72
8
 73
4
 74
0
 40
0
 40
0
 40
0
 40
0
 40
1
 40
1
 40
1
 40
1
 10
774.982222
 20
-2266.808889
 30
0.0
 10
792.197778
 20
-2266.808889
 30
0.0
 10
806.591111
 20
-2270.760000
 30
0.0
 10
821.548889
 20
-2279.226667
 30
0.0
  0
SPLINE
  5
107
100
AcDbEntity
  8
0
 62
7
100
AcDbSpline
 70
8
 71
3
 72
8
 73
4
 74
0
 40
0
 40
0
 40
0
 40
0
 40
1
 40
1
 40
1
 40
1
 10
821.548889
 20
-2279.226667
 30
0.0
 10
836.506667
 20
-2287.975556
 30
0.0
 10
846.948889
 20
-2298.417778
 30
0.0
 10
855.697778
 20
-2313.375556
 30
0.0
  0
SPLINE
  5
108
100
AcDbEntity
  8
0
 62
7
100
AcDbSpline
 70
8
 71
3
 72
8
 73
4
 74
0
 40
0
 40
0
 40
0
 40
0
 40
1
 40
1
 40
1
 40
1
 10
855.697778
 20
-2313.375556
 30
0.0
 10
864.164444
 20
-2328.333333
 30
0.0
 10
868.115556
 20
-2342.726667
 30
0.0
 10
868.115556
 20
-2359.942222
 30
0.0
  0
SPLINE
  5
109
100
AcDbEntity
  8
0
 62
7
100
AcDbSpline
 70
8
 71
3
 72
8
 73
4
 74
0
 40
0
 40
0
 40
0
 40
0
 40
1
 40
1
 40
1
 40
1
 10
868.115556
 20
-2359.942222
 30
0.0
 10
868.115556
 20
-2377.157778
 30
0.0
 10
864.164444
 20
-2391.551111
 30
0.0
 10
855.697778
 20
-2406.508889
 30
0.0
  0
SPLINE
  5
10a
100
AcDbEntity
  8
0
 62
7
100
AcDbSpline
 70
8
 71
3
 72
8
 73
4
 74
0
 40
0
 40
0
 40
0
 40
0
 40
1
 40
1
 40
1
 40
1
 10
855.697778
 20
-2406.508889
 30
0.0
 10
846.948889
 20
-2421.466667
 30
0.0
 10
836.506667
 20
-2431.908889
 30
0.0
 10
821.548889
 20
-2440.657778
 30
0.0
  0
SPLINE
  5
10b
100
AcDbEntity
  8
0
 62
7
100
AcDbSpline
 70
8
 71
3
 72
8
 73
4
 74
0
 40
0
 40
0
 40
0
 40
0
 40
1
 40
1
 40
1
 40
1
 10
821.548889
 20
-2440.657778
 30
0.0
 10
806.591111
 20
-2449.124444
 30
0.0
 10
792.197778
 20
-2453.075556
 30
0.0
 10
774.982222
 20
-2453.075556
 30
0.0
  0
SPLINE
  5
10c
100
AcDbEntity
  8
0
 62
7
100
AcDbSpline
 70
8
 71
3
 72
8
 73
4
 74
0
 40
0
 40
0
 40
0
 40
0
 40
1
 40
1
 40
1
 40
1
 10
774.982222
 20
-2990.708889
 30
0.0
 10
757.766667
 20
-2990.708889
 30
0.0
 10
743.373333
 20
-2986.757778
 30
0.0
 10
728.415556
 20
-2978.291111
 30
0.0
  0
SPLINE
  5
10d
100
AcDbEntity
  8
0
 62
7
100
AcDbSpline
 70
8
 71
3
 72
8
 73
4
 74
0
 40
0
 40
0
 40
0
 40
0
 40
1
 40
1
 40
1
 40
1
 10
728.415556
 20
-2978.291111
 30
0.0
 10
713.457778
 20
-2969.542222
 30
0.0
 10
703.015556
 20
-2959.100000
 30
0.0
 10
694.266667
 20
-2944.142222
 30
0.0
  0
SPLINE
  5
10e
100
AcDbEntity
  8
0
 62
7
100
AcDbSpline
 70
8
 71
3
 72
8
 73
4
 74
0
 40
0
 40
0
 40
0
 40
0
 40
1
 40
1
 40
1
 40
1
 10
694.266667
 20
-2944.142222
 30
0.0
 10
685.800000
 20
-2929.184444
 30
0.0
 10
681.848889
 20
-2914.791111
 30
0.0
 10
681.848889
 20
-2897.575556
 30
0.0
  0
SPLINE
  5
10f
100
AcDbEntity
  8
0
 62
7
100
AcDbSpline
 70
8
 71
3
 72
8
 73
4
 74
0
 40
0
 40
0
 40
0
 40
0
 40
1
 40
1
 40
1
 40
1
 10
681.848889
 20
-2897.575556
 30
0.0
 10
681.848889
 20
-2880.360000
 30
0.0
 10
685.800000
 20
-2865.966667
 30
0.0
 10
694.266667
 20
-2851.008889
 30
0.0
  0
SPLINE
  5
110
100
AcDbEntity
  8
0
 62
7
100
AcDbSpline
 70
8
 71
3
 72
8
 73
4
 74
0
 40
0
 40
0
 40
0
 40
0
 40
1
 40
1
 40
1
 40
1
 10
694.266667
 20
-2851.008889
 30
0.0
 10
703.015556
 20
-2836.051111
 30
0.0
 10
713.457778
 20
-2825.608889
 30
0.0
 10
728.415556
 20
-2816.860000
 30
0.0
  0
SPLINE
  5
111
100
AcDbEntity
  8
0
 62
7
100
AcDbSpline
 70
8
 71
3
 72
8
 73
4
 74
0
 40
0
 40
0
 40
0
 40
0
 40
1
 40
1
 40
1
 40
1
 10
728.415556
 20
-2816.860000
 30
0.0
 10
743.373333
 20
-2808.393333
 30
0.0
 10
757.766667
 20
-2804.442222
 30
0.0
 10
774.982222
 20
-2804.442222
 30
0.0
  0
SPLINE
  5
112
100
AcDbEntity
  8
0
 62
7
100
AcDbSpline
 70
8
 71
3
 72
8
 73
4
 74
0
 40
0
 40
0
 40
0
 40
0
 40
1
 40
1
 40
1
 40
1
 10
774.982222
 20
-2804.442222
 30
0.0
 10
792.197778
 20
-2804.442222
 30
0.0
 10
806.591111
 20
-2808.393333
 30
0.0
 10
821.548889
 20
-2816.860000
 30
0.0
  0
SPLINE
  5
113
100
AcDbEntity
  8
0
 62
7
100
AcDbSpline
 70
8
 71
3
 72
8
 73
4
 74
0
 40
0
 40
0
 40
0
 40
0
 40
1
 40
1
 40
1
 40
1
 10
821.548889
 20
-2816.860000
 30
0.0
 10
836.506667
 20
-2825.608889
 30
0.0
 10
846.948889
 20
-2836.051111
 30
0.0
 10
855.697778
 20
-2851.008889
 30
0.0
  0
SPLINE
  5
114
100
AcDbEntity
  8
0
 62
7
100
AcDbSpline
 70
8
 71
3
 72
8
 73
4
 74
0
 40
0
 40
0
 40
0
 40
0
 40
1
 40
1
 40
1
 40
1
 10
855.697778
 20
-2851.008889
 30
0.0
 10
864.164444
 20
-2865.966667
 30
0.0
 10
868.115556
 20
-2880.360000
 30
0.0
 10
868.115556
 20
-2897.575556
 30
0.0
  0
SPLINE
  5
115
100
AcDbEntity
  8
0
 62
7
100
AcDbSpline
 70
8
 71
3
 72
8
 73
4
 74
0
 40
0
 40
0
 40
0
 40
0
 40
1
 40
1
 40
1
 40
1
 10
868.115556
 20
-2897.575556
 30
0.0
 10
868.115556
 20
-2914.791111
 30
0.0
 10
864.164444
 20
-2929.184444
 30
0.0
 10
855.697778
 20
-2944.142222
 30
0.0
  0
SPLINE
  5
116
100
AcDbEntity
  8
0
 62
7
100
AcDbSpline
 70
8
 71
3
 72
8
 73
4
 74
0
 40
0
 40
0
 40
0
 40
0
 40
1
 40
1
 40
1
 40
1
 10
855.697778
 20
-2944.142222
 30
0.0
 10
846.948889
 20
-2959.100000
 30
0.0
 10
836.506667
 20
-2969.542222
 30
0.0
 10
821.548889
 20
-2978.291111
 30
0.0
  0
SPLINE
  5
117
100
AcDbEntity
  8
0
 62
7
100
AcDbSpline
 70
8
 71
3
 72
8
 73
4
 74
0
 40
0
 40
0
 40
0
 40
0
 40
1
 40
1
 40
1
 40
1
 10
821.548889
 20
-2978.291111
 30
0.0
 10
806.591111
 20
-2986.757778
 30
0.0
 10
792.197778
 20
-2990.708889
 30
0.0
 10
774.982222
 20
-2990.708889
 30
0.0
  0
SPLINE
  5
118
100
AcDbEntity
  8
0
 62
7
100
AcDbSpline
 70
8
 71
3
 72
8
 73
4
 74
0
 40
0
 40
0
 40
0
 40
0
 40
1
 40
1
 40
1
 40
1
 10
774.982222
 20
-3528.342222
 30
0.0
 10
757.766667
 20
-3528.342222
 30
0.0
 10
743.373333
 20
-3524.391111
 30
0.0
 10
728.415556
 20
-3515.924444
 30
0.0
  0
SPLINE
  5
119
100
AcDbEntity
  8
0
 62
7
100
AcDbSpline
 70
8
 71
3
 72
8
 73
4
 74
0
 40
0
 40
0
 40
0
 40
0
 40
1
 40
1
 40
1
 40
1
 10
728.415556
 20
-3515.924444
 30
0.0
 10
713.457778
 20
-3507.175556
 30
0.0
 10
703.015556
 20
-3496.733333
 30
0.0
 10
694.266667
 20
-3481.775556
 30
0.0
  0
SPLINE
  5
11a
100
AcDbEntity
  8
0
 62
7
100
AcDbSpline
 70
8
 71
3
 72
8
 73
4
 74
0
 40
0
 40
0
 40
0
 40
0
 40
1
 40
1
 40
1
 40
1
 10
694.266667
 20
-3481.775556
 30
0.0
 10
685.800000
 20
-3466.817778
 30
0.0
 10
681.848889
 20
-3452.424444
 30
0.0
 10
681.848889
 20
-3435.208889
 30
0.0
  0
SPLINE
  5
11b
100
AcDbEntity
  8
0
 62
7
100
AcDbSpline
 70
8
 71
3
 72
8
 73
4
 74
0
 40
0
 40
0
 40
0
 40
0
 40
1
 40
1
 40
1
 40
1
 10
681.848889
 20
-3435.208889
 30
0.0
 10
681.848889
 20
-3417.993333
 30
0.0
 10
685.800000
 20
-3403.600000
 30
0.0
 10
694.266667
 20
-3388.642222
 30
0.0
  0
SPLINE
  5
11c
100
AcDbEntity
  8
0
 62
7
100
AcDbSpline
 70
8
 71
3
 72
8
 73
4
 74
0
 40
0
 40
0
 40
0
 40
0
 40
1
 40
1
 40
1
 40
1
 10
694.266667
 20
-3388.642222
 30
0.0
 10
703.015556
 20
-3373.684444
 30
0.0
 10
713.457778
 20
-3363.242222
 30
0.0
 10
728.415556
 20
-3354.493333
 30
0.0
  0
SPLINE
  5
11d
100
AcDbEntity
  8
0
 62
7
100
AcDbSpline
 70
8
 71
3
 72
8
 73
4
 74
0
 40
0
 40
0
 40
0
 40
0
 40
1
 40
1
 40
1
 40
1
 10
728.415556
 20
-3354.493333
 30
0.0
 10
743.373333
 20
-3346.026667
 30
0.0
 10
757.766667
 20
-3342.075556
 30
0.0
 10
774.982222
 20
-3342.075556
 30
0.0
  0
SPLINE
  5
11e
100
AcDbEntity
  8
0
 62
7
100
AcDbSpline
 70
8
 71
3
 72
8
 73
4
 74
0
 40
0
 40
0
 40
0
 40
0
 40
1
 40
1
 40
1
 40
1
 10
774.982222
 20
-3342.075556
 30
0.0
 10
792.197778
 20
-3342.075556
 30
0.0
 10
806.591111
 20
-3346.026667
 30
0.0
 10
821.548889
 20
-3354.493333
 30
0.0
  0
SPLINE
  5
11f
100
AcDbEntity
  8
0
 62
7
100
AcDbSpline
 70
8
 71
3
 72
8
 73
4
 74
0
 40
0
 40
0
 40
0
 40
0
 40
1
 40
1
 40
1
 40
1
 10
821.548889
 20
-3354.493333
 30
0.0
 10
836.506667
 20
-3363.242222
 30
0.0
 10
846.948889
 20
-3373.684444
 30
0.0
 10
855.697778
 20
-3388.642222
 30
0.0
  0
SPLINE
  5
120
100
AcDbEntity
  8
0
 62
7
100
AcDbSpline
 70
8
 71
3
 72
8
 73
4
 74
0
 40
0
 40
0
 40
0
 40
0
 40
1
 40
1
 40
1
 40
1
 10
855.697778
 20
-3388.642222
 30
0.0
 10
864.164444
 20
-3403.600000
 30
0.0
 10
868.115556
 20
-3417.993333
 30
0.0
 10
868.115556
 20
-3435.208889
 30
0.0
  0
SPLINE
  5
121
100
AcDbEntity
  8
0
 62
7
100
AcDbSpline
 70
8
 71
3
 72
8
 73
4
 74
0
 40
0
 40
0
 40
0
 40
0
 40
1
 40
1
 40
1
 40
1
 10
868.115556
 20
-3435.208889
 30
0.0
 10
868.115556
 20
-3452.424444
 30
0.0
 10
864.164444
 20
-3466.817778
 30
0.0
 10
855.697778
 20
-3481.775556
 30
0.0
  0
SPLINE
  5
122
100
AcDbEntity
  8
0
 62
7
100
AcDbSpline
 70
8
 71
3
 72
8
 73
4
 74
0
 40
0
 40
0
 40
0
 40
0
 40
1
 40
1
 40
1
 40
1
 10
855.697778
 20
-3481.775556
 30
0.0
 10
846.948889
 20
-3496.733333
 30
0.0
 10
836.506667
 20
-3507.175556
 30
0.0
 10
821.548889
 20
-3515.924444
 30
0.0
  0
SPLINE
  5
123
100
AcDbEntity
  8
0
 62
7
100
AcDbSpline
 70
8
 71
3
 72
8
 73
4
 74
0
 40
0
 40
0
 40
0
 40
0
 40
1
 40
1
 40
1
 40
1
 10
821.548889
 20
-3515.924444
 30
0.0
 10
806.591111
 20
-3524.391111
 30
0.0
 10
792.197778
 20
-3528.342222
 30
0.0
 10
774.982222
 20
-3528.342222
 30
0.0
  0
SPLINE
  5
124
100
AcDbEntity
  8
0
 62
7
100
AcDbSpline
 70
8
 71
3
 72
8
 73
4
 74
0
 40
0
 40
0
 40
0
 40
0
 40
1
 40
1
 40
1
 40
1
 10
1134.251111
 20
-2471.137778
 30
0.0
 10
1113.648889
 20
-2471.137778
 30
0.0
 10
1096.151111
 20
-2466.622222
 30
0.0
 10
1078.653333
 20
-2456.180000
 30
0.0
  0
SPLINE
  5
125
100
AcDbEntity
  8
0
 62
7
100
AcDbSpline
 70
8
 71
3
 72
8
 73
4
 74
0
 40
0
 40
0
 40
0
 40
0
 40
1
 40
1
 40
1
 40
1
 10
1078.653333
 20
-2456.180000
 30
0.0
 10
1060.873333
 20
-2446.020000
 30
0.0
 10
1048.173333
 20
-2433.320000
 30
0.0
 10
1038.013333
 20
-2415.540000
 30
0.0
  0
SPLINE
  5
126
100
AcDbEntity
  8
0
 62
7
100
AcDbSpline
 70
8
 71
3
 72
8
 73
4
 74
0
 40
0
 40
0
 40
0
 40
0
 40
1
 40
1
 40
1
 40
1
 10
1038.013333
 20
-2415.540000
 30
0.0
 10
1027.571111
 20
-2398.042222
 30
0.0
 10
1023.055556
 20
-2380.544444
 30
0.0
 10
1023.055556
 20
-2360.224444
 30
0.0
  0
SPLINE
  5
127
100
AcDbEntity
  8
0
 62
7
100
AcDbSpline
 70
8
 71
3
 72
8
 73
4
 74
0
 40
0
 40
0
 40
0
 40
0
 40
1
 40
1
 40
1
 40
1
 10
1023.055556
 20
-2360.224444
 30
0.0
 10
1023.055556
 20
-2339.622222
 30
0.0
 10
1027.571111
 20
-2322.124444
 30
0.0
 10
1038.013333
 20
-2304.626667
 30
0.0
  0
SPLINE
  5
128
100
AcDbEntity
  8
0
 62
7
100
AcDbSpline
 70
8
 71
3
 72
8
 73
4
 74
0
 40
0
 40
0
 40
0
 40
0
 40
1
 40
1
 40
1
 40
1
 10
1038.013333
 20
-2304.626667
 30
0.0
 10
1048.173333
 20
-2286.846667
 30
0.0
 10
1060.873333
 20
-2274.146667
 30
0.0
 10
1078.653333
 20
-2263.986667
 30
0.0
  0
SPLINE
  5
129
100
AcDbEntity
  8
0
 62
7
100
AcDbSpline
 70
8
 71
3
 72
8
 73
4
 74
0
 40
0
 40
0
 40
0
 40
0
 40
1
 40
1
 40
1
 40
1
 10
1078.653333
 20
-2263.986667
 30
0.0
 10
1096.151111
 20
-2253.544444
 30
0.0
 10
1113.648889
 20
-2249.028889
 30
0.0
 10
1134.251111
 20
-2249.028889
 30
0.0
  0
SPLINE
  5
12a
100
AcDbEntity
  8
0
 62
7
100
AcDbSpline
 70
8
 71
3
 72
8
 73
4
 74
0
 40
0
 40
0
 40
0
 40
0
 40
1
 40
1
 40
1
 40
1
 10
1134.251111
 20
-2249.028889
 30
0.0
 10
1154.571111
 20
-2249.028889
 30
0.0
 10
1172.068889
 20
-2253.544444
 30
0.0
 10
1189.566667
 20
-2263.986667
 30
0.0
  0
SPLINE
  5
12b
100
AcDbEntity
  8
0
 62
7
100
AcDbSpline
 70
8
 71
3
 72
8
 73
4
 74
0
 40
0
 40
0
 40
0
 40
0
 40
1
 40
1
 40
1
 40
1
 10
1189.566667
 20
-2263.986667
 30
0.0
 10
1207.346667
 20
-2274.146667
 30
0.0
 10
1220.046667
 20
-2286.846667
 30
0.0
 10
1230.206667
 20
-2304.626667
 30
0.0
  0
SPLINE
  5
12c
100
AcDbEntity
  8
0
 62
7
100
AcDbSpline
 70
8
 71
3
 72
8
 73
4
 74
0
 40
0
 40
0
 40
0
 40
0
 40
1
 40
1
 40
1
 40
1
 10
1230.206667
 20
-2304.626667
 30
0.0
 10
1240.648889
 20
-2322.124444
 30
0.0
 10
1245.164444
 20
-2339.622222
 30
0.0
 10
1245.164444
 20
-2360.224444
 30
0.0
  0
SPLINE
  5
12d
100
AcDbEntity
  8
0
 62
7
100
AcDbSpline
 70
8
 71
3
 72
8
 73
4
 74
0
 40
0
 40
0
 40
0
 40
0
 40
1
 40
1
 40
1
 40
1
 10
1245.164444
 20
-2360.224444
 30
0.0
 10
1245.164444
 20
-2380.544444
 30
0.0
 10
1240.648889
 20
-2398.042222
 30
0.0
 10
1230.206667
 20
-2415.540000
 30
0.0
  0
SPLINE
  5
12e
100
AcDbEntity
  8
0
 62
7
100
AcDbSpline
 70
8
 71
3
 72
8
 73
4
 74
0
 40
0
 40
0
 40
0
 40
0
 40
1
 40
1
 40
1
 40
1
 10
1230.206667
 20
-2415.540000
 30
0.0
 10
1220.046667
 20
-2433.320000
 30
0.0
 10
1207.346667
 20
-2446.020000
 30
0.0
 10
1189.566667
 20
-2456.180000
 30
0.0
  0
SPLINE
  5
12f
100
AcDbEntity
  8
0
 62
7
100
AcDbSpline
 70
8
 71
3
 72
8
 73
4
 74
0
 40
0
 40
0
 40
0
 40
0
 40
1
 40
1
 40
1
 40
1
 10
1189.566667
 20
-2456.180000
 30
0.0
 10
1172.068889
 20
-2466.622222
 30
0.0
 10
1154.571111
 20
-2471.137778
 30
0.0
 10
1134.251111
 20
-2471.137778
 30
0.0
  0
SPLINE
  5
130
100
AcDbEntity
  8
0
 62
7
100
AcDbSpline
 70
8
 71
3
 72
8
 73
4
 74
0
 40
0
 40
0
 40
0
 40
0
 40
1
 40
1
 40
1
 40
1
 10
1134.251111
 20
-3008.771111
 30
0.0
 10
1113.648889
 20
-3008.771111
 30
0.0
 10
1096.151111
 20
-3004.255556
 30
0.0
 10
1078.653333
 20
-2993.813333
 30
0.0
  0
SPLINE
  5
131
100
AcDbEntity
  8
0
 62
7
100
AcDbSpline
 70
8
 71
3
 72
8
 73
4
 74
0
 40
0
 40
0
 40
0
 40
0
 40
1
 40
1
 40
1
 40
1
 10
1078.653333
 20
-2993.813333
 30
0.0
 10
1060.873333
 20
-2983.653333
 30
0.0
 10
1048.173333
 20
-2970.953333
 30
0.0
 10
1038.013333
 20
-2953.173333
 30
0.0
  0
SPLINE
  5
132
100
AcDbEntity
  8
0
 62
7
100
AcDbSpline
 70
8
 71
3
 72
8
 73
4
 74
0
 40
0
 40
0
 40
0
 40
0
 40
1
 40
1
 40
1
 40
1
 10
1038.013333
 20
-2953.173333
 30
0.0
 10
1027.571111
 20
-2935.675556
 30
0.0
 10
1023.055556
 20
-2918.177778
 30
0.0
 10
1023.055556
 20
-2897.857778
 30
0.0
  0
SPLINE
  5
133
100
AcDbEntity
  8
0
 62
7
100
AcDbSpline
 70
8
 71
3
 72
8
 73
4
 74
0
 40
0
 40
0
 40
0
 40
0
 40
1
 40
1
 40
1
 40
1
 10
1023.055556
 20
-2897.857778
 30
0.0
 10
1023.055556
 20
-2877.255556
 30
0.0
 10
1027.571111
 20
-2859.757778
 30
0.0
 10
1038.013333
 20
-2842.260000
 30
0.0
  0
SPLINE
  5
134
100
AcDbEntity
  8
0
 62
7
100
AcDbSpline
 70
8
 71
3
 72
8
 73
4
 74
0
 40
0
 40
0
 40
0
 40
0
 40
1
 40
1
 40
1
 40
1
 10
1038.013333
 20
-2842.260000
 30
0.0
 10
1048.173333
 20
-2824.480000
 30
0.0
 10
1060.873333
 20
-2811.780000
 30
0.0
 10
1078.653333
 20
-2801.620000
 30
0.0
  0
SPLINE
  5
135
100
AcDbEntity
  8
0
 62
7
100
AcDbSpline
 70
8
 71
3
 72
8
 73
4
 74
0
 40
0
 40
0
 40
0
 40
0
 40
1
 40
1
 40
1
 40
1
 10
1078.653333
 20
-2801.620000
 30
0.0
 10
1096.151111
 20
-2791.177778
 30
0.0
 10
1113.648889
 20
-2786.662222
 30
0.0
 10
1134.251111
 20
-2786.662222
 30
0.0
  0
SPLINE
  5
136
100
AcDbEntity
  8
0
 62
7
100
AcDbSpline
 70
8
 71
3
 72
8
 73
4
 74
0
 40
0
 40
0
 40
0
 40
0
 40
1
 40
1
 40
1
 40
1
 10
1134.251111
 20
-2786.662222
 30
0.0
 10
1154.571111
 20
-2786.662222
 30
0.0
 10
1172.068889
 20
-2791.177778
 30
0.0
 10
1189.566667
 20
-2801.620000
 30
0.0
  0
SPLINE
  5
137
100
AcDbEntity
  8
0
 62
7
100
AcDbSpline
 70
8
 71
3
 72
8
 73
4
 74
0
 40
0
 40
0
 40
0
 40
0
 40
1
 40
1
 40
1
 40
1
 10
1189.566667
 20
-2801.620000
 30
0.0
 10
1207.346667
 20
-2811.780000
 30
0.0
 10
1220.046667
 20
-2824.480000
 30
0.0
 10
1230.206667
 20
-2842.260000
 30
0.0
  0
SPLINE
  5
138
100
AcDbEntity
  8
0
 62
7
100
AcDbSpline
 70
8
 71
3
 72
8
 73
4
 74
0
 40
0
 40
0
 40
0
 40
0
 40
1
 40
1
 40
1
 40
1
 10
1230.206667
 20
-2842.260000
 30
0.0
 10
1240.648889
 20
-2859.757778
 30
0.0
 10
1245.164444
 20
-2877.255556
 30
0.0
 10
1245.164444
 20
-2897.857778
 30
0.0
  0
SPLINE
  5
139
100
AcDbEntity
  8
0
 62
7
100
AcDbSpline
 70
8
 71
3
 72
8
 73
4
 74
0
 40
0
 40
0
 40
0
 40
0
 40
1
 40
1
 40
1
 40
1
 10
1245.164444
 20
-2897.857778
 30
0.0
 10
1245.164444
 20
-2918.177778
 30
0.0
 10
1240.648889
 20
-2935.675556
 30
0.0
 10
1230.206667
 20
-2953.173333
 30
0.0
  0
SPLINE
  5
13a
100
AcDbEntity
  8
0
 62
7
100
AcDbSpline
 70
8
 71
3
 72
8
 73
4
 74
0
 40
0
 40
0
 40
0
 40
0
 40
1
 40
1
 40
1
 40
1
 10
1230.206667
 20
-2953.173333
 30
0.0
 10
1220.046667
 20
-2970.953333
 30
0.0
 10
1207.346667
 20
-2983.653333
 30
0.0
 10
1189.566667
 20
-2993.813333
 30
0.0
  0
SPLINE
  5
13b
100
AcDbEntity
  8
0
 62
7
100
AcDbSpline
 70
8
 71
3
 72
8
 73
4
 74
0
 40
0
 40
0
 40
0
 40
0
 40
1
 40
1
 40
1
 40
1
 10
1189.566667
 20
-2993.813333
 30
0.0
 10
1172.068889
 20
-3004.255556
 30
0.0
 10
1154.571111
 20
-3008.771111
 30
0.0
 10
1134.251111
 20
-3008.771111
 30
0.0
  0
SPLINE
  5
13c
100
AcDbEntity
  8
0
 62
7
100
AcDbSpline
 70
8
 71
3
 72
8
 73
4
 74
0
 40
0
 40
0
 40
0
 40
0
 40
1
 40
1
 40
1
 40
1
 10
1134.251111
 20
-3546.404444
 30
0.0
 10
1113.648889
 20
-3546.404444
 30
0.0
 10
1096.151111
 20
-3541.888889
 30
0.0
 10
1078.653333
 20
-3531.446667
 30
0.0
  0
SPLINE
  5
13d
100
AcDbEntity
  8
0
 62
7
100
AcDbSpline
 70
8
 71
3
 72
8
 73
4
 74
0
 40
0
 40
0
 40
0
 40
0
 40
1
 40
1
 40
1
 40
1
 10
1078.653333
 20
-3531.446667
 30
0.0
 10
1060.873333
 20
-3521.286667
 30
0.0
 10
1048.173333
 20
-3508.586667
 30
0.0
 10
1038.013333
 20
-3490.806667
 30
0.0
  0
SPLINE
  5
13e
100
AcDbEntity
  8
0
 62
7
100
AcDbSpline
 70
8
 71
3
 72
8
 73
4
 74
0
 40
0
 40
0
 40
0
 40
0
 40
1
 40
1
 40
1
 40
1
 10
1038.013333
 20
-3490.806667
 30
0.0
 10
1027.571111
 20
-3473.308889
 30
0.0
 10
1023.055556
 20
-3455.811111
 30
0.0
 10
1023.055556
 20
-3435.491111
 30
0.0
  0
SPLINE
  5
13f
100
AcDbEntity
  8
0
 62
7
100
AcDbSpline
 70
8
 71
3
 72
8
 73
4
 74
0
 40
0
 40
0
 40
0
 40
0
 40
1
 40
1
 40
1
 40
1
 10
1023.055556
 20
-3435.491111
 30
0.0
 10
1023.055556
 20
-3414.888889
 30
0.0
 10
1027.571111
 20
-3397.391111
 30
0.0
 10
1038.013333
 20
-3379.893333
 30
0.0
  0
SPLINE
  5
140
100
AcDbEntity
  8
0
 62
7
100
AcDbSpline
 70
8
 71
3
 72
8
 73
4
 74
0
 40
0
 40
0
 40
0
 40
0
 40
1
 40
1
 40
1
 40
1
 10
1038.013333
 20
-3379.893333
 30
0.0
 10
1048.173333
 20
-3362.113333
 30
0.0
 10
1060.873333
 20
-3349.413333
 30
0.0
 10
1078.653333
 20
-3339.253333
 30
0.0
  0
SPLINE
  5
141
100
AcDbEntity
  8
0
 62
7
100
AcDbSpline
 70
8
 71
3
 72
8
 73
4
 74
0
 40
0
 40
0
 40
0
 40
0
 40
1
 40
1
 40
1
 40
1
 10
1078.653333
 20
-3339.253333
 30
0.0
 10
1096.151111
 20
-3328.811111
 30
0.0
 10
1113.648889
 20
-3324.295556
 30
0.0
 10
1134.251111
 20
-3324.295556
 30
0.0
  0
SPLINE
  5
142
100
AcDbEntity
  8
0
 62
7
100
AcDbSpline
 70
8
 71
3
 72
8
 73
4
 74
0
 40
0
 40
0
 40
0
 40
0
 40
1
 40
1
 40
1
 40
1
 10
1134.251111
 20
-3324.295556
 30
0.0
 10
1154.571111
 20
-3324.295556
 30
0.0
 10
1172.068889
 20
-3328.811111
 30
0.0
 10
1189.566667
 20
-3339.253333
 30
0.0
  0
SPLINE
  5
143
100
AcDbEntity
  8
0
 62
7
100
AcDbSpline
 70
8
 71
3
 72
8
 73
4
 74
0
 40
0
 40
0
 40
0
 40
0
 40
1
 40
1
 40
1
 40
1
 10
1189.566667
 20
-3339.253333
 30
0.0
 10
1207.346667
 20
-3349.413333
 30
0.0
 10
1220.046667
 20
-3362.113333
 30
0.0
 10
1230.206667
 20
-3379.893333
 30
0.0
  0
SPLINE
  5
144
100
AcDbEntity
  8
0
 62
7
100
AcDbSpline
 70
8
 71
3
 72
8
 73
4
 74
0
 40
0
 40
0
 40
0
 40
0
 40
1
 40
1
 40
1
 40
1
 10
1230.206667
 20
-3379.893333
 30
0.0
 10
1240.648889
 20
-3397.391111
 30
0.0
 10
1245.164444
 20
-3414.888889
 30
0.0
 10
1245.164444
 20
-3435.491111
 30
0.0
  0
SPLINE
  5
145
100
AcDbEntity
  8
0
 62
7
100
AcDbSpline
 70
8
 71
3
 72
8
 73
4
 74
0
 40
0
 40
0
 40
0
 40
0
 40
1
 40
1
 40
1
 40
1
 10
1245.164444
 20
-3435.491111
 30
0.0
 10
1245.164444
 20
-3455.811111
 30
0.0
 10
1240.648889
 20
-3473.308889
 30
0.0
 10
1230.206667
 20
-3490.806667
 30
0.0
  0
SPLINE
  5
146
100
AcDbEntity
  8
0
 62
7
100
AcDbSpline
 70
8
 71
3
 72
8
 73
4
 74
0
 40
0
 40
0
 40
0
 40
0
 40
1
 40
1
 40
1
 40
1
 10
1230.206667
 20
-3490.806667
 30
0.0
 10
1220.046667
 20
-3508.586667
 30
0.0
 10
1207.346667
 20
-3521.286667
 30
0.0
 10
1189.566667
 20
-3531.446667
 30
0.0
  0
SPLINE
  5
147
100
AcDbEntity
  8
0
 62
7
100
AcDbSpline
 70
8
 71
3
 72
8
 73
4
 74
0
 40
0
 40
0
 40
0
 40
0
 40
1
 40
1
 40
1
 40
1
 10
1189.566667
 20
-3531.446667
 30
0.0
 10
1172.068889
 20
-3541.888889
 30
0.0
 10
1154.571111
 20
-3546.404444
 30
0.0
 10
1134.251111
 20
-3546.404444
 30
0.0
  0
SPLINE
  5
148
100
AcDbEntity
  8
0
 62
7
100
AcDbSpline
 70
8
 71
3
 72
8
 73
4
 74
0
 40
0
 40
0
 40
0
 40
0
 40
1
 40
1
 40
1
 40
1
 10
3408.115556
 20
-1218.635556
 30
0.0
 10
3398.520000
 20
-1218.635556
 30
0.0
 10
3390.335556
 20
-1216.660000
 30
0.0
 10
3382.151111
 20
-1211.862222
 30
0.0
  0
SPLINE
  5
149
100
AcDbEntity
  8
0
 62
7
100
AcDbSpline
 70
8
 71
3
 72
8
 73
4
 74
0
 40
0
 40
0
 40
0
 40
0
 40
1
 40
1
 40
1
 40
1
 10
3382.151111
 20
-1211.862222
 30
0.0
 10
3373.684444
 20
-1207.346667
 30
0.0
 10
3367.757778
 20
-1201.420000
 30
0.0
 10
3362.960000
 20
-1193.517778
 30
0.0
  0
SPLINE
  5
14a
100
AcDbEntity
  8
0
 62
7
100
AcDbSpline
 70
8
 71
3
 72
8
 73
4
 74
0
 40
0
 40
0
 40
0
 40
0
 40
1
 40
1
 40
1
 40
1
 10
3362.960000
 20
-1193.517778
 30
0.0
 10
3358.162222
 20
-1185.615556
 30
0.0
 10
3355.904444
 20
-1177.713333
 30
0.0
 10
3355.904444
 20
-1168.400000
 30
0.0
  0
SPLINE
  5
14b
100
AcDbEntity
  8
0
 62
7
100
AcDbSpline
 70
8
 71
3
 72
8
 73
4
 74
0
 40
0
 40
0
 40
0
 40
0
 40
1
 40
1
 40
1
 40
1
 10
3355.904444
 20
-1168.400000
 30
0.0
 10
3355.904444
 20
-1159.086667
 30
0.0
 10
3358.162222
 20
-1151.184444
 30
0.0
 10
3362.960000
 20
-1143.282222
 30
0.0
  0
SPLINE
  5
14c
100
AcDbEntity
  8
0
 62
7
100
AcDbSpline
 70
8
 71
3
 72
8
 73
4
 74
0
 40
0
 40
0
 40
0
 40
0
 40
1
 40
1
 40
1
 40
1
 10
3362.960000
 20
-1143.282222
 30
0.0
 10
3367.757778
 20
-1135.380000
 30
0.0
 10
3373.684444
 20
-1129.453333
 30
0.0
 10
3382.151111
 20
-1124.937778
 30
0.0
  0
SPLINE
  5
14d
100
AcDbEntity
  8
0
 62
7
100
AcDbSpline
 70
8
 71
3
 72
8
 73
4
 74
0
 40
0
 40
0
 40
0
 40
0
 40
1
 40
1
 40
1
 40
1
 10
3382.151111
 20
-1124.937778
 30
0.0
 10
3390.335556
 20
-1120.140000
 30
0.0
 10
3398.520000
 20
-1118.164444
 30
0.0
 10
3408.115556
 20
-1118.164444
 30
0.0
  0
SPLINE
  5
14e
100
AcDbEntity
  8
0
 62
7
100
AcDbSpline
 70
8
 71
3
 72
8
 73
4
 74
0
 40
0
 40
0
 40
0
 40
0
 40
1
 40
1
 40
1
 40
1
 10
3408.115556
 20
-1118.164444
 30
0.0
 10
3417.711111
 20
-1118.164444
 30
0.0
 10
3425.895556
 20
-1120.140000
 30
0.0
 10
3434.362222
 20
-1124.937778
 30
0.0
  0
SPLINE
  5
14f
100
AcDbEntity
  8
0
 62
7
100
AcDbSpline
 70
8
 71
3
 72
8
 73
4
 74
0
 40
0
 40
0
 40
0
 40
0
 40
1
 40
1
 40
1
 40
1
 10
3434.362222
 20
-1124.937778
 30
0.0
 10
3442.546667
 20
-1129.453333
 30
0.0
 10
3448.473333
 20
-1135.380000
 30
0.0
 10
3453.271111
 20
-1143.282222
 30
0.0
  0
SPLINE
  5
150
100
AcDbEntity
  8
0
 62
7
100
AcDbSpline
 70
8
 71
3
 72
8
 73
4
 74
0
 40
0
 40
0
 40
0
 40
0
 40
1
 40
1
 40
1
 40
1
 10
3453.271111
 20
-1143.282222
 30
0.0
 10
3458.068889
 20
-1151.184444
 30
0.0
 10
3460.326667
 20
-1159.086667
 30
0.0
 10
3460.326667
 20
-1168.400000
 30
0.0
  0
SPLINE
  5
151
100
AcDbEntity
  8
0
 62
7
100
AcDbSpline
 70
8
 71
3
 72
8
 73
4
 74
0
 40
0
 40
0
 40
0
 40
0
 40
1
 40
1
 40
1
 40
1
 10
3460.326667
 20
-1168.400000
 30
0.0
 10
3460.326667
 20
-1177.713333
 30
0.0
 10
3458.068889
 20
-1185.615556
 30
0.0
 10
3453.271111
 20
-1193.517778
 30
0.0
  0
SPLINE
  5
152
100
AcDbEntity
  8
0
 62
7
100
AcDbSpline
 70
8
 71
3
 72
8
 73
4
 74
0
 40
0
 40
0
 40
0
 40
0
 40
1
 40
1
 40
1
 40
1
 10
3453.271111
 20
-1193.517778
 30
0.0
 10
3448.473333
 20
-1201.420000
 30
0.0
 10
3442.546667
 20
-1207.346667
 30
0.0
 10
3434.362222
 20
-1211.862222
 30
0.0
  0
SPLINE
  5
153
100
AcDbEntity
  8
0
 62
7
100
AcDbSpline
 70
8
 71
3
 72
8
 73
4
 74
0
 40
0
 40
0
 40
0
 40
0
 40
1
 40
1
 40
1
 40
1
 10
3434.362222
 20
-1211.862222
 30
0.0
 10
3425.895556
 20
-1216.660000
 30
0.0
 10
3417.711111
 20
-1218.635556
 30
0.0
 10
3408.115556
 20
-1218.635556
 30
0.0
  0
SPLINE
  5
154
100
AcDbEntity
  8
0
 62
7
100
AcDbSpline
 70
8
 71
3
 72
8
 73
4
 74
0
 40
0
 40
0
 40
0
 40
0
 40
1
 40
1
 40
1
 40
1
 10
2512.906667
 20
-1218.635556
 30
0.0
 10
2503.311111
 20
-1218.635556
 30
0.0
 10
2495.126667
 20
-1216.660000
 30
0.0
 10
2486.942222
 20
-1211.862222
 30
0.0
  0
SPLINE
  5
155
100
AcDbEntity
  8
0
 62
7
100
AcDbSpline
 70
8
 71
3
 72
8
 73
4
 74
0
 40
0
 40
0
 40
0
 40
0
 40
1
 40
1
 40
1
 40
1
 10
2486.942222
 20
-1211.862222
 30
0.0
 10
2478.475556
 20
-1207.346667
 30
0.0
 10
2472.548889
 20
-1201.420000
 30
0.0
 10
2467.751111
 20
-1193.517778
 30
0.0
  0
SPLINE
  5
156
100
AcDbEntity
  8
0
 62
7
100
AcDbSpline
 70
8
 71
3
 72
8
 73
4
 74
0
 40
0
 40
0
 40
0
 40
0
 40
1
 40
1
 40
1
 40
1
 10
2467.751111
 20
-1193.517778
 30
0.0
 10
2462.953333
 20
-1185.615556
 30
0.0
 10
2460.695556
 20
-1177.713333
 30
0.0
 10
2460.695556
 20
-1168.400000
 30
0.0
  0
SPLINE
  5
157
100
AcDbEntity
  8
0
 62
7
100
AcDbSpline
 70
8
 71
3
 72
8
 73
4
 74
0
 40
0
 40
0
 40
0
 40
0
 40
1
 40
1
 40
1
 40
1
 10
2460.695556
 20
-1168.400000
 30
0.0
 10
2460.695556
 20
-1159.086667
 30
0.0
 10
2462.953333
 20
-1151.184444
 30
0.0
 10
2467.751111
 20
-1143.282222
 30
0.0
  0
SPLINE
  5
158
100
AcDbEntity
  8
0
 62
7
100
AcDbSpline
 70
8
 71
3
 72
8
 73
4
 74
0
 40
0
 40
0
 40
0
 40
0
 40
1
 40
1
 40
1
 40
1
 10
2467.751111
 20
-1143.282222
 30
0.0
 10
2472.548889
 20
-1135.380000
 30
0.0
 10
2478.475556
 20
-1129.453333
 30
0.0
 10
2486.942222
 20
-1124.937778
 30
0.0
  0
SPLINE
  5
159
100
AcDbEntity
  8
0
 62
7
100
AcDbSpline
 70
8
 71
3
 72
8
 73
4
 74
0
 40
0
 40
0
 40
0
 40
0
 40
1
 40
1
 40
1
 40
1
 10
2486.942222
 20
-1124.937778
 30
0.0
 10
2495.126667
 20
-1120.140000
 30
0.0
 10
2503.311111
 20
-1118.164444
 30
0.0
 10
2512.906667
 20
-1118.164444
 30
0.0
  0
SPLINE
  5
15a
100
AcDbEntity
  8
0
 62
7
100
AcDbSpline
 70
8
 71
3
 72
8
 73
4
 74
0
 40
0
 40
0
 40
0
 40
0
 40
1
 40
1
 40
1
 40
1
 10
2512.906667
 20
-1118.164444
 30
0.0
 10
2522.502222
 20
-1118.164444
 30
0.0
 10
2530.686667
 20
-1120.140000
 30
0.0
 10
2539.153333
 20
-1124.937778
 30
0.0
  0
SPLINE
  5
15b
100
AcDbEntity
  8
0
 62
7
100
AcDbSpline
 70
8
 71
3
 72
8
 73
4
 74
0
 40
0
 40
0
 40
0
 40
0
 40
1
 40
1
 40
1
 40
1
 10
2539.153333
 20
-1124.937778
 30
0.0
 10
2547.337778
 20
-1129.453333
 30
0.0
 10
2553.264444
 20
-1135.380000
 30
0.0
 10
2558.062222
 20
-1143.282222
 30
0.0
  0
SPLINE
  5
15c
100
AcDbEntity
  8
0
 62
7
100
AcDbSpline
 70
8
 71
3
 72
8
 73
4
 74
0
 40
0
 40
0
 40
0
 40
0
 40
1
 40
1
 40
1
 40
1
 10
2558.062222
 20
-1143.282222
 30
0.0
 10
2562.860000
 20
-1151.184444
 30
0.0
 10
2565.117778
 20
-1159.086667
 30
0.0
 10
2565.117778
 20
-1168.400000
 30
0.0
  0
SPLINE
  5
15d
100
AcDbEntity
  8
0
 62
7
100
AcDbSpline
 70
8
 71
3
 72
8
 73
4
 74
0
 40
0
 40
0
 40
0
 40
0
 40
1
 40
1
 40
1
 40
1
 10
2565.117778
 20
-1168.400000
 30
0.0
 10
2565.117778
 20
-1177.713333
 30
0.0
 10
2562.860000
 20
-1185.615556
 30
0.0
 10
2558.062222
 20
-1193.517778
 30
0.0
  0
SPLINE
  5
15e
100
AcDbEntity
  8
0
 62
7
100
AcDbSpline
 70
8
 71
3
 72
8
 73
4
 74
0
 40
0
 40
0
 40
0
 40
0
 40
1
 40
1
 40
1
 40
1
 10
2558.062222
 20
-1193.517778
 30
0.0
 10
2553.264444
 20
-1201.420000
 30
0.0
 10
2547.337778
 20
-1207.346667
 30
0.0
 10
2539.153333
 20
-1211.862222
 30
0.0
  0
SPLINE
  5
15f
100
AcDbEntity
  8
0
 62
7
100
AcDbSpline
 70
8
 71
3
 72
8
 73
4
 74
0
 40
0
 40
0
 40
0
 40
0
 40
1
 40
1
 40
1
 40
1
 10
2539.153333
 20
-1211.862222
 30
0.0
 10
2530.686667
 20
-1216.660000
 30
0.0
 10
2522.502222
 20
-1218.635556
 30
0.0
 10
2512.906667
 20
-1218.635556
 30
0.0
  0
SPLINE
  5
160
100
AcDbEntity
  8
0
 62
7
100
AcDbSpline
 70
8
 71
3
 72
8
 73
4
 74
0
 40
0
 40
0
 40
0
 40
0
 40
1
 40
1
 40
1
 40
1
 10
3408.115556
 20
-1720.426667
 30
0.0
 10
3398.520000
 20
-1720.426667
 30
0.0
 10
3390.335556
 20
-1718.451111
 30
0.0
 10
3382.151111
 20
-1713.653333
 30
0.0
  0
SPLINE
  5
161
100
AcDbEntity
  8
0
 62
7
100
AcDbSpline
 70
8
 71
3
 72
8
 73
4
 74
0
 40
0
 40
0
 40
0
 40
0
 40
1
 40
1
 40
1
 40
1
 10
3382.151111
 20
-1713.653333
 30
0.0
 10
3373.684444
 20
-1709.137778
 30
0.0
 10
3367.757778
 20
-1703.211111
 30
0.0
 10
3362.960000
 20
-1695.308889
 30
0.0
  0
SPLINE
  5
162
100
AcDbEntity
  8
0
 62
7
100
AcDbSpline
 70
8
 71
3
 72
8
 73
4
 74
0
 40
0
 40
0
 40
0
 40
0
 40
1
 40
1
 40
1
 40
1
 10
3362.960000
 20
-1695.308889
 30
0.0
 10
3358.162222
 20
-1687.406667
 30
0.0
 10
3355.904444
 20
-1679.504444
 30
0.0
 10
3355.904444
 20
-1670.191111
 30
0.0
  0
SPLINE
  5
163
100
AcDbEntity
  8
0
 62
7
100
AcDbSpline
 70
8
 71
3
 72
8
 73
4
 74
0
 40
0
 40
0
 40
0
 40
0
 40
1
 40
1
 40
1
 40
1
 10
3355.904444
 20
-1670.191111
 30
0.0
 10
3355.904444
 20
-1660.877778
 30
0.0
 10
3358.162222
 20
-1652.975556
 30
0.0
 10
3362.960000
 20
-1645.073333
 30
0.0
  0
SPLINE
  5
164
100
AcDbEntity
  8
0
 62
7
100
AcDbSpline
 70
8
 71
3
 72
8
 73
4
 74
0
 40
0
 40
0
 40
0
 40
0
 40
1
 40
1
 40
1
 40
1
 10
3362.960000
 20
-1645.073333
 30
0.0
 10
3367.757778
 20
-1637.171111
 30
0.0
 10
3373.684444
 20
-1631.244444
 30
0.0
 10
3382.151111
 20
-1626.728889
 30
0.0
  0
SPLINE
  5
165
100
AcDbEntity
  8
0
 62
7
100
AcDbSpline
 70
8
 71
3
 72
8
 73
4
 74
0
 40
0
 40
0
 40
0
 40
0
 40
1
 40
1
 40
1
 40
1
 10
3382.151111
 20
-1626.728889
 30
0.0
 10
3390.335556
 20
-1621.931111
 30
0.0
 10
3398.520000
 20
-1619.955556
 30
0.0
 10
3408.115556
 20
-1619.955556
 30
0.0
  0
SPLINE
  5
166
100
AcDbEntity
  8
0
 62
7
100
AcDbSpline
 70
8
 71
3
 72
8
 73
4
 74
0
 40
0
 40
0
 40
0
 40
0
 40
1
 40
1
 40
1
 40
1
 10
3408.115556
 20
-1619.955556
 30
0.0
 10
3417.711111
 20
-1619.955556
 30
0.0
 10
3425.895556
 20
-1621.931111
 30
0.0
 10
3434.362222
 20
-1626.728889
 30
0.0
  0
SPLINE
  5
167
100
AcDbEntity
  8
0
 62
7
100
AcDbSpline
 70
8
 71
3
 72
8
 73
4
 74
0
 40
0
 40
0
 40
0
 40
0
 40
1
 40
1
 40
1
 40
1
 10
3434.362222
 20
-1626.728889
 30
0.0
 10
3442.546667
 20
-1631.244444
 30
0.0
 10
3448.473333
 20
-1637.171111
 30
0.0
 10
3453.271111
 20
-1645.073333
 30
0.0
  0
SPLINE
  5
168
100
AcDbEntity
  8
0
 62
7
100
AcDbSpline
 70
8
 71
3
 72
8
 73
4
 74
0
 40
0
 40
0
 40
0
 40
0
 40
1
 40
1
 40
1
 40
1
 10
3453.271111
 20
-1645.073333
 30
0.0
 10
3458.068889
 20
-1652.975556
 30
0.0
 10
3460.326667
 20
-1660.877778
 30
0.0
 10
3460.326667
 20
-1670.191111
 30
0.0
  0
SPLINE
  5
169
100
AcDbEntity
  8
0
 62
7
100
AcDbSpline
 70
8
 71
3
 72
8
 73
4
 74
0
 40
0
 40
0
 40
0
 40
0
 40
1
 40
1
 40
1
 40
1
 10
3460.326667
 20
-1670.191111
 30
0.0
 10
3460.326667
 20
-1679.504444
 30
0.0
 10
3458.068889
 20
-1687.406667
 30
0.0
 10
3453.271111
 20
-1695.308889
 30
0.0
  0
SPLINE
  5
16a
100
AcDbEntity
  8
0
 62
7
100
AcDbSpline
 70
8
 71
3
 72
8
 73
4
 74
0
 40
0
 40
0
 40
0
 40
0
 40
1
 40
1
 40
1
 40
1
 10
3453.271111
 20
-1695.308889
 30
0.0
 10
3448.473333
 20
-1703.211111
 30
0.0
 10
3442.546667
 20
-1709.137778
 30
0.0
 10
3434.362222
 20
-1713.653333
 30
0.0
  0
SPLINE
  5
16b
100
AcDbEntity
  8
0
 62
7
100
AcDbSpline
 70
8
 71
3
 72
8
 73
4
 74
0
 40
0
 40
0
 40
0
 40
0
 40
1
 40
1
 40
1
 40
1
 10
3434.362222
 20
-1713.653333
 30
0.0
 10
3425.895556
 20
-1718.451111
 30
0.0
 10
3417.711111
 20
-1720.426667
 30
0.0
 10
3408.115556
 20
-1720.426667
 30
0.0
  0
SPLINE
  5
16c
100
AcDbEntity
  8
0
 62
7
100
AcDbSpline
 70
8
 71
3
 72
8
 73
4
 74
0
 40
0
 40
0
 40
0
 40
0
 40
1
 40
1
 40
1
 40
1
 10
2512.906667
 20
-1720.426667
 30
0.0
 10
2503.311111
 20
-1720.426667
 30
0.0
 10
2495.126667
 20
-1718.451111
 30
0.0
 10
2486.942222
 20
-1713.653333
 30
0.0
  0
SPLINE
  5
16d
100
AcDbEntity
  8
0
 62
7
100
AcDbSpline
 70
8
 71
3
 72
8
 73
4
 74
0
 40
0
 40
0
 40
0
 40
0
 40
1
 40
1
 40
1
 40
1
 10
2486.942222
 20
-1713.653333
 30
0.0
 10
2478.475556
 20
-1709.137778
 30
0.0
 10
2472.548889
 20
-1703.211111
 30
0.0
 10
2467.751111
 20
-1695.308889
 30
0.0
  0
SPLINE
  5
16e
100
AcDbEntity
  8
0
 62
7
100
AcDbSpline
 70
8
 71
3
 72
8
 73
4
 74
0
 40
0
 40
0
 40
0
 40
0
 40
1
 40
1
 40
1
 40
1
 10
2467.751111
 20
-1695.308889
 30
0.0
 10
2462.953333
 20
-1687.406667
 30
0.0
 10
2460.695556
 20
-1679.504444
 30
0.0
 10
2460.695556
 20
-1670.191111
 30
0.0
  0
SPLINE
  5
16f
100
AcDbEntity
  8
0
 62
7
100
AcDbSpline
 70
8
 71
3
 72
8
 73
4
 74
0
 40
0
 40
0
 40
0
 40
0
 40
1
 40
1
 40
1
 40
1
 10
2460.695556
 20
-1670.191111
 30
0.0
 10
2460.695556
 20
-1660.877778
 30
0.0
 10
2462.953333
 20
-1652.975556
 30
0.0
 10
2467.751111
 20
-1645.073333
 30
0.0
  0
SPLINE
  5
170
100
AcDbEntity
  8
0
 62
7
100
AcDbSpline
 70
8
 71
3
 72
8
 73
4
 74
0
 40
0
 40
0
 40
0
 40
0
 40
1
 40
1
 40
1
 40
1
 10
2467.751111
 20
-1645.073333
 30
0.0
 10
2472.548889
 20
-1637.171111
 30
0.0
 10
2478.475556
 20
-1631.244444
 30
0.0
 10
2486.942222
 20
-1626.728889
 30
0.0
  0
SPLINE
  5
171
100
AcDbEntity
  8
0
 62
7
100
AcDbSpline
 70
8
 71
3
 72
8
 73
4
 74
0
 40
0
 40
0
 40
0
 40
0
 40
1
 40
1
 40
1
 40
1
 10
2486.942222
 20
-1626.728889
 30
0.0
 10
2495.126667
 20
-1621.931111
 30
0.0
 10
2503.311111
 20
-1619.955556
 30
0.0
 10
2512.906667
 20
-1619.955556
 30
0.0
  0
SPLINE
  5
172
100
AcDbEntity
  8
0
 62
7
100
AcDbSpline
 70
8
 71
3
 72
8
 73
4
 74
0
 40
0
 40
0
 40
0
 40
0
 40
1
 40
1
 40
1
 40
1
 10
2512.906667
 20
-1619.955556
 30
0.0
 10
2522.502222
 20
-1619.955556
 30
0.0
 10
2530.686667
 20
-1621.931111
 30
0.0
 10
2539.153333
 20
-1626.728889
 30
0.0
  0
SPLINE
  5
173
100
AcDbEntity
  8
0
 62
7
100
AcDbSpline
 70
8
 71
3
 72
8
 73
4
 74
0
 40
0
 40
0
 40
0
 40
0
 40
1
 40
1
 40
1
 40
1
 10
2539.153333
 20
-1626.728889
 30
0.0
 10
2547.337778
 20
-1631.244444
 30
0.0
 10
2553.264444
 20
-1637.171111
 30
0.0
 10
2558.062222
 20
-1645.073333
 30
0.0
  0
SPLINE
  5
174
100
AcDbEntity
  8
0
 62
7
100
AcDbSpline
 70
8
 71
3
 72
8
 73
4
 74
0
 40
0
 40
0
 40
0
 40
0
 40
1
 40
1
 40
1
 40
1
 10
2558.062222
 20
-1645.073333
 30
0.0
 10
2562.860000
 20
-1652.975556
 30
0.0
 10
2565.117778
 20
-1660.877778
 30
0.0
 10
2565.117778
 20
-1670.191111
 30
0.0
  0
SPLINE
  5
175
100
AcDbEntity
  8
0
 62
7
100
AcDbSpline
 70
8
 71
3
 72
8
 73
4
 74
0
 40
0
 40
0
 40
0
 40
0
 40
1
 40
1
 40
1
 40
1
 10
2565.117778
 20
-1670.191111
 30
0.0
 10
2565.117778
 20
-1679.504444
 30
0.0
 10
2562.860000
 20
-1687.406667
 30
0.0
 10
2558.062222
 20
-1695.308889
 30
0.0
  0
SPLINE
  5
176
100
AcDbEntity
  8
0
 62
7
100
AcDbSpline
 70
8
 71
3
 72
8
 73
4
 74
0
 40
0
 40
0
 40
0
 40
0
 40
1
 40
1
 40
1
 40
1
 10
2558.062222
 20
-1695.308889
 30
0.0
 10
2553.264444
 20
-1703.211111
 30
0.0
 10
2547.337778
 20
-1709.137778
 30
0.0
 10
2539.153333
 20
-1713.653333
 30
0.0
  0
SPLINE
  5
177
100
AcDbEntity
  8
0
 62
7
100
AcDbSpline
 70
8
 71
3
 72
8
 73
4
 74
0
 40
0
 40
0
 40
0
 40
0
 40
1
 40
1
 40
1
 40
1
 10
2539.153333
 20
-1713.653333
 30
0.0
 10
2530.686667
 20
-1718.451111
 30
0.0
 10
2522.502222
 20
-1720.426667
 30
0.0
 10
2512.906667
 20
-1720.426667
 30
0.0
  0
LWPOLYLINE
  5
178
100
AcDbEntity
  8
0
 62
7
100
AcDbPolyline
 90
5
 70
0
 10
0.000000
 20
28.222222
 30
0.0
 10
17204.266667
 20
28.222222
 30
0.0
 10
17204.266667
 20
-12874.977778
 30
0.0
 10
0.000000
 20
-12874.977778
 30
0.0
 10
0.000000
 20
28.222222
 30
0.0
  0
SPLINE
  5
179
100
AcDbEntity
  8
0
 62
7
100
AcDbSpline
 70
8
 71
3
 72
8
 73
4
 74
0
 40
0
 40
0
 40
0
 40
0
 40
1
 40
1
 40
1
 40
1
 10
3408.115556
 20
-1218.635556
 30
0.0
 10
3398.520000
 20
-1218.635556
 30
0.0
 10
3390.335556
 20
-1216.660000
 30
0.0
 10
3382.151111
 20
-1211.862222
 30
0.0
  0
SPLINE
  5
17a
100
AcDbEntity
  8
0
 62
7
100
AcDbSpline
 70
8
 71
3
 72
8
 73
4
 74
0
 40
0
 40
0
 40
0
 40
0
 40
1
 40
1
 40
1
 40
1
 10
3382.151111
 20
-1211.862222
 30
0.0
 10
3373.684444
 20
-1207.346667
 30
0.0
 10
3367.757778
 20
-1201.420000
 30
0.0
 10
3362.960000
 20
-1193.517778
 30
0.0
  0
SPLINE
  5
17b
100
AcDbEntity
  8
0
 62
7
100
AcDbSpline
 70
8
 71
3
 72
8
 73
4
 74
0
 40
0
 40
0
 40
0
 40
0
 40
1
 40
1
 40
1
 40
1
 10
3362.960000
 20
-1193.517778
 30
0.0
 10
3358.162222
 20
-1185.615556
 30
0.0
 10
3355.904444
 20
-1177.713333
 30
0.0
 10
3355.904444
 20
-1168.400000
 30
0.0
  0
SPLINE
  5
17c
100
AcDbEntity
  8
0
 62
7
100
AcDbSpline
 70
8
 71
3
 72
8
 73
4
 74
0
 40
0
 40
0
 40
0
 40
0
 40
1
 40
1
 40
1
 40
1
 10
3355.904444
 20
-1168.400000
 30
0.0
 10
3355.904444
 20
-1159.086667
 30
0.0
 10
3358.162222
 20
-1151.184444
 30
0.0
 10
3362.960000
 20
-1143.282222
 30
0.0
  0
SPLINE
  5
17d
100
AcDbEntity
  8
0
 62
7
100
AcDbSpline
 70
8
 71
3
 72
8
 73
4
 74
0
 40
0
 40
0
 40
0
 40
0
 40
1
 40
1
 40
1
 40
1
 10
3362.960000
 20
-1143.282222
 30
0.0
 10
3367.757778
 20
-1135.380000
 30
0.0
 10
3373.684444
 20
-1129.453333
 30
0.0
 10
3382.151111
 20
-1124.937778
 30
0.0
  0
SPLINE
  5
17e
100
AcDbEntity
  8
0
 62
7
100
AcDbSpline
 70
8
 71
3
 72
8
 73
4
 74
0
 40
0
 40
0
 40
0
 40
0
 40
1
 40
1
 40
1
 40
1
 10
3382.151111
 20
-1124.937778
 30
0.0
 10
3390.335556
 20
-1120.140000
 30
0.0
 10
3398.520000
 20
-1118.164444
 30
0.0
 10
3408.115556
 20
-1118.164444
 30
0.0
  0
SPLINE
  5
17f
100
AcDbEntity
  8
0
 62
7
100
AcDbSpline
 70
8
 71
3
 72
8
 73
4
 74
0
 40
0
 40
0
 40
0
 40
0
 40
1
 40
1
 40
1
 40
1
 10
3408.115556
 20
-1118.164444
 30
0.0
 10
3417.711111
 20
-1118.164444
 30
0.0
 10
3425.895556
 20
-1120.140000
 30
0.0
 10
3434.362222
 20
-1124.937778
 30
0.0
  0
SPLINE
  5
180
100
AcDbEntity
  8
0
 62
7
100
AcDbSpline
 70
8
 71
3
 72
8
 73
4
 74
0
 40
0
 40
0
 40
0
 40
0
 40
1
 40
1
 40
1
 40
1
 10
3434.362222
 20
-1124.937778
 30
0.0
 10
3442.546667
 20
-1129.453333
 30
0.0
 10
3448.473333
 20
-1135.380000
 30
0.0
 10
3453.271111
 20
-1143.282222
 30
0.0
  0
SPLINE
  5
181
100
AcDbEntity
  8
0
 62
7
100
AcDbSpline
 70
8
 71
3
 72
8
 73
4
 74
0
 40
0
 40
0
 40
0
 40
0
 40
1
 40
1
 40
1
 40
1
 10
3453.271111
 20
-1143.282222
 30
0.0
 10
3458.068889
 20
-1151.184444
 30
0.0
 10
3460.326667
 20
-1159.086667
 30
0.0
 10
3460.326667
 20
-1168.400000
 30
0.0
  0
SPLINE
  5
182
100
AcDbEntity
  8
0
 62
7
100
AcDbSpline
 70
8
 71
3
 72
8
 73
4
 74
0
 40
0
 40
0
 40
0
 40
0
 40
1
 40
1
 40
1
 40
1
 10
3460.326667
 20
-1168.400000
 30
0.0
 10
3460.326667
 20
-1177.713333
 30
0.0
 10
3458.068889
 20
-1185.615556
 30
0.0
 10
3453.271111
 20
-1193.517778
 30
0.0
  0
SPLINE
  5
183
100
AcDbEntity
  8
0
 62
7
100
AcDbSpline
 70
8
 71
3
 72
8
 73
4
 74
0
 40
0
 40
0
 40
0
 40
0
 40
1
 40
1
 40
1
 40
1
 10
3453.271111
 20
-1193.517778
 30
0.0
 10
3448.473333
 20
-1201.420000
 30
0.0
 10
3442.546667
 20
-1207.346667
 30
0.0
 10
3434.362222
 20
-1211.862222
 30
0.0
  0
SPLINE
  5
184
100
AcDbEntity
  8
0
 62
7
100
AcDbSpline
 70
8
 71
3
 72
8
 73
4
 74
0
 40
0
 40
0
 40
0
 40
0
 40
1
 40
1
 40
1
 40
1
 10
3434.362222
 20
-1211.862222
 30
0.0
 10
3425.895556
 20
-1216.660000
 30
0.0
 10
3417.711111
 20
-1218.635556
 30
0.0
 10
3408.115556
 20
-1218.635556
 30
0.0
  0
SPLINE
  5
185
100
AcDbEntity
  8
0
 62
7
100
AcDbSpline
 70
8
 71
3
 72
8
 73
4
 74
0
 40
0
 40
0
 40
0
 40
0
 40
1
 40
1
 40
1
 40
1
 10
2512.906667
 20
-1218.635556
 30
0.0
 10
2503.311111
 20
-1218.635556
 30
0.0
 10
2495.126667
 20
-1216.660000
 30
0.0
 10
2486.942222
 20
-1211.862222
 30
0.0
  0
SPLINE
  5
186
100
AcDbEntity
  8
0
 62
7
100
AcDbSpline
 70
8
 71
3
 72
8
 73
4
 74
0
 40
0
 40
0
 40
0
 40
0
 40
1
 40
1
 40
1
 40
1
 10
2486.942222
 20
-1211.862222
 30
0.0
 10
2478.475556
 20
-1207.346667
 30
0.0
 10
2472.548889
 20
-1201.420000
 30
0.0
 10
2467.751111
 20
-1193.517778
 30
0.0
  0
SPLINE
  5
187
100
AcDbEntity
  8
0
 62
7
100
AcDbSpline
 70
8
 71
3
 72
8
 73
4
 74
0
 40
0
 40
0
 40
0
 40
0
 40
1
 40
1
 40
1
 40
1
 10
2467.751111
 20
-1193.517778
 30
0.0
 10
2462.953333
 20
-1185.615556
 30
0.0
 10
2460.695556
 20
-1177.713333
 30
0.0
 10
2460.695556
 20
-1168.400000
 30
0.0
  0
SPLINE
  5
188
100
AcDbEntity
  8
0
 62
7
100
AcDbSpline
 70
8
 71
3
 72
8
 73
4
 74
0
 40
0
 40
0
 40
0
 40
0
 40
1
 40
1
 40
1
 40
1
 10
2460.695556
 20
-1168.400000
 30
0.0
 10
2460.695556
 20
-1159.086667
 30
0.0
 10
2462.953333
 20
-1151.184444
 30
0.0
 10
2467.751111
 20
-1143.282222
 30
0.0
  0
SPLINE
  5
189
100
AcDbEntity
  8
0
 62
7
100
AcDbSpline
 70
8
 71
3
 72
8
 73
4
 74
0
 40
0
 40
0
 40
0
 40
0
 40
1
 40
1
 40
1
 40
1
 10
2467.751111
 20
-1143.282222
 30
0.0
 10
2472.548889
 20
-1135.380000
 30
0.0
 10
2478.475556
 20
-1129.453333
 30
0.0
 10
2486.942222
 20
-1124.937778
 30
0.0
  0
SPLINE
  5
18a
100
AcDbEntity
  8
0
 62
7
100
AcDbSpline
 70
8
 71
3
 72
8
 73
4
 74
0
 40
0
 40
0
 40
0
 40
0
 40
1
 40
1
 40
1
 40
1
 10
2486.942222
 20
-1124.937778
 30
0.0
 10
2495.126667
 20
-1120.140000
 30
0.0
 10
2503.311111
 20
-1118.164444
 30
0.0
 10
2512.906667
 20
-1118.164444
 30
0.0
  0
SPLINE
  5
18b
100
AcDbEntity
  8
0
 62
7
100
AcDbSpline
 70
8
 71
3
 72
8
 73
4
 74
0
 40
0
 40
0
 40
0
 40
0
 40
1
 40
1
 40
1
 40
1
 10
2512.906667
 20
-1118.164444
 30
0.0
 10
2522.502222
 20
-1118.164444
 30
0.0
 10
2530.686667
 20
-1120.140000
 30
0.0
 10
2539.153333
 20
-1124.937778
 30
0.0
  0
SPLINE
  5
18c
100
AcDbEntity
  8
0
 62
7
100
AcDbSpline
 70
8
 71
3
 72
8
 73
4
 74
0
 40
0
 40
0
 40
0
 40
0
 40
1
 40
1
 40
1
 40
1
 10
2539.153333
 20
-1124.937778
 30
0.0
 10
2547.337778
 20
-1129.453333
 30
0.0
 10
2553.264444
 20
-1135.380000
 30
0.0
 10
2558.062222
 20
-1143.282222
 30
0.0
  0
SPLINE
  5
18d
100
AcDbEntity
  8
0
 62
7
100
AcDbSpline
 70
8
 71
3
 72
8
 73
4
 74
0
 40
0
 40
0
 40
0
 40
0
 40
1
 40
1
 40
1
 40
1
 10
2558.062222
 20
-1143.282222
 30
0.0
 10
2562.860000
 20
-1151.184444
 30
0.0
 10
2565.117778
 20
-1159.086667
 30
0.0
 10
2565.117778
 20
-1168.400000
 30
0.0
  0
SPLINE
  5
18e
100
AcDbEntity
  8
0
 62
7
100
AcDbSpline
 70
8
 71
3
 72
8
 73
4
 74
0
 40
0
 40
0
 40
0
 40
0
 40
1
 40
1
 40
1
 40
1
 10
2565.117778
 20
-1168.400000
 30
0.0
 10
2565.117778
 20
-1177.713333
 30
0.0
 10
2562.860000
 20
-1185.615556
 30
0.0
 10
2558.062222
 20
-1193.517778
 30
0.0
  0
SPLINE
  5
18f
100
AcDbEntity
  8
0
 62
7
100
AcDbSpline
 70
8
 71
3
 72
8
 73
4
 74
0
 40
0
 40
0
 40
0
 40
0
 40
1
 40
1
 40
1
 40
1
 10
2558.062222
 20
-1193.517778
 30
0.0
 10
2553.264444
 20
-1201.420000
 30
0.0
 10
2547.337778
 20
-1207.346667
 30
0.0
 10
2539.153333
 20
-1211.862222
 30
0.0
  0
SPLINE
  5
190
100
AcDbEntity
  8
0
 62
7
100
AcDbSpline
 70
8
 71
3
 72
8
 73
4
 74
0
 40
0
 40
0
 40
0
 40
0
 40
1
 40
1
 40
1
 40
1
 10
2539.153333
 20
-1211.862222
 30
0.0
 10
2530.686667
 20
-1216.660000
 30
0.0
 10
2522.502222
 20
-1218.635556
 30
0.0
 10
2512.906667
 20
-1218.635556
 30
0.0
  0
SPLINE
  5
191
100
AcDbEntity
  8
0
 62
7
100
AcDbSpline
 70
8
 71
3
 72
8
 73
4
 74
0
 40
0
 40
0
 40
0
 40
0
 40
1
 40
1
 40
1
 40
1
 10
3408.115556
 20
-1720.426667
 30
0.0
 10
3398.520000
 20
-1720.426667
 30
0.0
 10
3390.335556
 20
-1718.451111
 30
0.0
 10
3382.151111
 20
-1713.653333
 30
0.0
  0
SPLINE
  5
192
100
AcDbEntity
  8
0
 62
7
100
AcDbSpline
 70
8
 71
3
 72
8
 73
4
 74
0
 40
0
 40
0
 40
0
 40
0
 40
1
 40
1
 40
1
 40
1
 10
3382.151111
 20
-1713.653333
 30
0.0
 10
3373.684444
 20
-1709.137778
 30
0.0
 10
3367.757778
 20
-1703.211111
 30
0.0
 10
3362.960000
 20
-1695.308889
 30
0.0
  0
SPLINE
  5
193
100
AcDbEntity
  8
0
 62
7
100
AcDbSpline
 70
8
 71
3
 72
8
 73
4
 74
0
 40
0
 40
0
 40
0
 40
0
 40
1
 40
1
 40
1
 40
1
 10
3362.960000
 20
-1695.308889
 30
0.0
 10
3358.162222
 20
-1687.406667
 30
0.0
 10
3355.904444
 20
-1679.504444
 30
0.0
 10
3355.904444
 20
-1670.191111
 30
0.0
  0
SPLINE
  5
194
100
AcDbEntity
  8
0
 62
7
100
AcDbSpline
 70
8
 71
3
 72
8
 73
4
 74
0
 40
0
 40
0
 40
0
 40
0
 40
1
 40
1
 40
1
 40
1
 10
3355.904444
 20
-1670.191111
 30
0.0
 10
3355.904444
 20
-1660.877778
 30
0.0
 10
3358.162222
 20
-1652.975556
 30
0.0
 10
3362.960000
 20
-1645.073333
 30
0.0
  0
SPLINE
  5
195
100
AcDbEntity
  8
0
 62
7
100
AcDbSpline
 70
8
 71
3
 72
8
 73
4
 74
0
 40
0
 40
0
 40
0
 40
0
 40
1
 40
1
 40
1
 40
1
 10
3362.960000
 20
-1645.073333
 30
0.0
 10
3367.757778
 20
-1637.171111
 30
0.0
 10
3373.684444
 20
-1631.244444
 30
0.0
 10
3382.151111
 20
-1626.728889
 30
0.0
  0
SPLINE
  5
196
100
AcDbEntity
  8
0
 62
7
100
AcDbSpline
 70
8
 71
3
 72
8
 73
4
 74
0
 40
0
 40
0
 40
0
 40
0
 40
1
 40
1
 40
1
 40
1
 10
3382.151111
 20
-1626.728889
 30
0.0
 10
3390.335556
 20
-1621.931111
 30
0.0
 10
3398.520000
 20
-1619.955556
 30
0.0
 10
3408.115556
 20
-1619.955556
 30
0.0
  0
SPLINE
  5
197
100
AcDbEntity
  8
0
 62
7
100
AcDbSpline
 70
8
 71
3
 72
8
 73
4
 74
0
 40
0
 40
0
 40
0
 40
0
 40
1
 40
1
 40
1
 40
1
 10
3408.115556
 20
-1619.955556
 30
0.0
 10
3417.711111
 20
-1619.955556
 30
0.0
 10
3425.895556
 20
-1621.931111
 30
0.0
 10
3434.362222
 20
-1626.728889
 30
0.0
  0
SPLINE
  5
198
100
AcDbEntity
  8
0
 62
7
100
AcDbSpline
 70
8
 71
3
 72
8
 73
4
 74
0
 40
0
 40
0
 40
0
 40
0
 40
1
 40
1
 40
1
 40
1
 10
3434.362222
 20
-1626.728889
 30
0.0
 10
3442.546667
 20
-1631.244444
 30
0.0
 10
3448.473333
 20
-1637.171111
 30
0.0
 10
3453.271111
 20
-1645.073333
 30
0.0
  0
SPLINE
  5
199
100
AcDbEntity
  8
0
 62
7
100
AcDbSpline
 70
8
 71
3
 72
8
 73
4
 74
0
 40
0
 40
0
 40
0
 40
0
 40
1
 40
1
 40
1
 40
1
 10
3453.271111
 20
-1645.073333
 30
0.0
 10
3458.068889
 20
-1652.975556
 30
0.0
 10
3460.326667
 20
-1660.877778
 30
0.0
 10
3460.326667
 20
-1670.191111
 30
0.0
  0
SPLINE
  5
19a
100
AcDbEntity
  8
0
 62
7
100
AcDbSpline
 70
8
 71
3
 72
8
 73
4
 74
0
 40
0
 40
0
 40
0
 40
0
 40
1
 40
1
 40
1
 40
1
 10
3460.326667
 20
-1670.191111
 30
0.0
 10
3460.326667
 20
-1679.504444
 30
0.0
 10
3458.068889
 20
-1687.406667
 30
0.0
 10
3453.271111
 20
-1695.308889
 30
0.0
  0
SPLINE
  5
19b
100
AcDbEntity
  8
0
 62
7
100
AcDbSpline
 70
8
 71
3
 72
8
 73
4
 74
0
 40
0
 40
0
 40
0
 40
0
 40
1
 40
1
 40
1
 40
1
 10
3453.271111
 20
-1695.308889
 30
0.0
 10
3448.473333
 20
-1703.211111
 30
0.0
 10
3442.546667
 20
-1709.137778
 30
0.0
 10
3434.362222
 20
-1713.653333
 30
0.0
  0
SPLINE
  5
19c
100
AcDbEntity
  8
0
 62
7
100
AcDbSpline
 70
8
 71
3
 72
8
 73
4
 74
0
 40
0
 40
0
 40
0
 40
0
 40
1
 40
1
 40
1
 40
1
 10
3434.362222
 20
-1713.653333
 30
0.0
 10
3425.895556
 20
-1718.451111
 30
0.0
 10
3417.711111
 20
-1720.426667
 30
0.0
 10
3408.115556
 20
-1720.426667
 30
0.0
  0
SPLINE
  5
19d
100
AcDbEntity
  8
0
 62
7
100
AcDbSpline
 70
8
 71
3
 72
8
 73
4
 74
0
 40
0
 40
0
 40
0
 40
0
 40
1
 40
1
 40
1
 40
1
 10
2512.906667
 20
-1720.426667
 30
0.0
 10
2503.311111
 20
-1720.426667
 30
0.0
 10
2495.126667
 20
-1718.451111
 30
0.0
 10
2486.942222
 20
-1713.653333
 30
0.0
  0
SPLINE
  5
19e
100
AcDbEntity
  8
0
 62
7
100
AcDbSpline
 70
8
 71
3
 72
8
 73
4
 74
0
 40
0
 40
0
 40
0
 40
0
 40
1
 40
1
 40
1
 40
1
 10
2486.942222
 20
-1713.653333
 30
0.0
 10
2478.475556
 20
-1709.137778
 30
0.0
 10
2472.548889
 20
-1703.211111
 30
0.0
 10
2467.751111
 20
-1695.308889
 30
0.0
  0
SPLINE
  5
19f
100
AcDbEntity
  8
0
 62
7
100
AcDbSpline
 70
8
 71
3
 72
8
 73
4
 74
0
 40
0
 40
0
 40
0
 40
0
 40
1
 40
1
 40
1
 40
1
 10
2467.751111
 20
-1695.308889
 30
0.0
 10
2462.953333
 20
-1687.406667
 30
0.0
 10
2460.695556
 20
-1679.504444
 30
0.0
 10
2460.695556
 20
-1670.191111
 30
0.0
  0
SPLINE
  5
1a0
100
AcDbEntity
  8
0
 62
7
100
AcDbSpline
 70
8
 71
3
 72
8
 73
4
 74
0
 40
0
 40
0
 40
0
 40
0
 40
1
 40
1
 40
1
 40
1
 10
2460.695556
 20
-1670.191111
 30
0.0
 10
2460.695556
 20
-1660.877778
 30
0.0
 10
2462.953333
 20
-1652.975556
 30
0.0
 10
2467.751111
 20
-1645.073333
 30
0.0
  0
SPLINE
  5
1a1
100
AcDbEntity
  8
0
 62
7
100
AcDbSpline
 70
8
 71
3
 72
8
 73
4
 74
0
 40
0
 40
0
 40
0
 40
0
 40
1
 40
1
 40
1
 40
1
 10
2467.751111
 20
-1645.073333
 30
0.0
 10
2472.548889
 20
-1637.171111
 30
0.0
 10
2478.475556
 20
-1631.244444
 30
0.0
 10
2486.942222
 20
-1626.728889
 30
0.0
  0
SPLINE
  5
1a2
100
AcDbEntity
  8
0
 62
7
100
AcDbSpline
 70
8
 71
3
 72
8
 73
4
 74
0
 40
0
 40
0
 40
0
 40
0
 40
1
 40
1
 40
1
 40
1
 10
2486.942222
 20
-1626.728889
 30
0.0
 10
2495.126667
 20
-1621.931111
 30
0.0
 10
2503.311111
 20
-1619.955556
 30
0.0
 10
2512.906667
 20
-1619.955556
 30
0.0
  0
SPLINE
  5
1a3
100
AcDbEntity
  8
0
 62
7
100
AcDbSpline
 70
8
 71
3
 72
8
 73
4
 74
0
 40
0
 40
0
 40
0
 40
0
 40
1
 40
1
 40
1
 40
1
 10
2512.906667
 20
-1619.955556
 30
0.0
 10
2522.502222
 20
-1619.955556
 30
0.0
 10
2530.686667
 20
-1621.931111
 30
0.0
 10
2539.153333
 20
-1626.728889
 30
0.0
  0
SPLINE
  5
1a4
100
AcDbEntity
  8
0
 62
7
100
AcDbSpline
 70
8
 71
3
 72
8
 73
4
 74
0
 40
0
 40
0
 40
0
 40
0
 40
1
 40
1
 40
1
 40
1
 10
2539.153333
 20
-1626.728889
 30
0.0
 10
2547.337778
 20
-1631.244444
 30
0.0
 10
2553.264444
 20
-1637.171111
 30
0.0
 10
2558.062222
 20
-1645.073333
 30
0.0
  0
SPLINE
  5
1a5
100
AcDbEntity
  8
0
 62
7
100
AcDbSpline
 70
8
 71
3
 72
8
 73
4
 74
0
 40
0
 40
0
 40
0
 40
0
 40
1
 40
1
 40
1
 40
1
 10
2558.062222
 20
-1645.073333
 30
0.0
 10
2562.860000
 20
-1652.975556
 30
0.0
 10
2565.117778
 20
-1660.877778
 30
0.0
 10
2565.117778
 20
-1670.191111
 30
0.0
  0
SPLINE
  5
1a6
100
AcDbEntity
  8
0
 62
7
100
AcDbSpline
 70
8
 71
3
 72
8
 73
4
 74
0
 40
0
 40
0
 40
0
 40
0
 40
1
 40
1
 40
1
 40
1
 10
2565.117778
 20
-1670.191111
 30
0.0
 10
2565.117778
 20
-1679.504444
 30
0.0
 10
2562.860000
 20
-1687.406667
 30
0.0
 10
2558.062222
 20
-1695.308889
 30
0.0
  0
SPLINE
  5
1a7
100
AcDbEntity
  8
0
 62
7
100
AcDbSpline
 70
8
 71
3
 72
8
 73
4
 74
0
 40
0
 40
0
 40
0
 40
0
 40
1
 40
1
 40
1
 40
1
 10
2558.062222
 20
-1695.308889
 30
0.0
 10
2553.264444
 20
-1703.211111
 30
0.0
 10
2547.337778
 20
-1709.137778
 30
0.0
 10
2539.153333
 20
-1713.653333
 30
0.0
  0
SPLINE
  5
1a8
100
AcDbEntity
  8
0
 62
7
100
AcDbSpline
 70
8
 71
3
 72
8
 73
4
 74
0
 40
0
 40
0
 40
0
 40
0
 40
1
 40
1
 40
1
 40
1
 10
2539.153333
 20
-1713.653333
 30
0.0
 10
2530.686667
 20
-1718.451111
 30
0.0
 10
2522.502222
 20
-1720.426667
 30
0.0
 10
2512.906667
 20
-1720.426667
 30
0.0
  0
SPLINE
  5
1a9
100
AcDbEntity
  8
0
 62
7
100
AcDbSpline
 70
8
 71
3
 72
8
 73
4
 74
0
 40
0
 40
0
 40
0
 40
0
 40
1
 40
1
 40
1
 40
1
 10
3986.388889
 20
-1243.471111
 30
0.0
 10
3968.326667
 20
-1243.471111
 30
0.0
 10
3953.368889
 20
-1239.520000
 30
0.0
 10
3937.846667
 20
-1231.053333
 30
0.0
  0
SPLINE
  5
1aa
100
AcDbEntity
  8
0
 62
7
100
AcDbSpline
 70
8
 71
3
 72
8
 73
4
 74
0
 40
0
 40
0
 40
0
 40
0
 40
1
 40
1
 40
1
 40
1
 10
3937.846667
 20
-1231.053333
 30
0.0
 10
3922.324444
 20
-1222.304444
 30
0.0
 10
3911.317778
 20
-1211.862222
 30
0.0
 10
3902.286667
 20
-1196.904444
 30
0.0
  0
SPLINE
  5
1ab
100
AcDbEntity
  8
0
 62
7
100
AcDbSpline
 70
8
 71
3
 72
8
 73
4
 74
0
 40
0
 40
0
 40
0
 40
0
 40
1
 40
1
 40
1
 40
1
 10
3902.286667
 20
-1196.904444
 30
0.0
 10
3893.255556
 20
-1181.946667
 30
0.0
 10
3889.304444
 20
-1167.553333
 30
0.0
 10
3889.304444
 20
-1150.337778
 30
0.0
  0
SPLINE
  5
1ac
100
AcDbEntity
  8
0
 62
7
100
AcDbSpline
 70
8
 71
3
 72
8
 73
4
 74
0
 40
0
 40
0
 40
0
 40
0
 40
1
 40
1
 40
1
 40
1
 10
3889.304444
 20
-1150.337778
 30
0.0
 10
3889.304444
 20
-1133.122222
 30
0.0
 10
3893.255556
 20
-1118.728889
 30
0.0
 10
3902.286667
 20
-1103.771111
 30
0.0
  0
SPLINE
  5
1ad
100
AcDbEntity
  8
0
 62
7
100
AcDbSpline
 70
8
 71
3
 72
8
 73
4
 74
0
 40
0
 40
0
 40
0
 40
0
 40
1
 40
1
 40
1
 40
1
 10
3902.286667
 20
-1103.771111
 30
0.0
 10
3911.317778
 20
-1088.813333
 30
0.0
 10
3922.324444
 20
-1078.371111
 30
0.0
 10
3937.846667
 20
-1069.622222
 30
0.0
  0
SPLINE
  5
1ae
100
AcDbEntity
  8
0
 62
7
100
AcDbSpline
 70
8
 71
3
 72
8
 73
4
 74
0
 40
0
 40
0
 40
0
 40
0
 40
1
 40
1
 40
1
 40
1
 10
3937.846667
 20
-1069.622222
 30
0.0
 10
3953.368889
 20
-1061.155556
 30
0.0
 10
3968.326667
 20
-1057.204444
 30
0.0
 10
3986.388889
 20
-1057.204444
 30
0.0
  0
SPLINE
  5
1af
100
AcDbEntity
  8
0
 62
7
100
AcDbSpline
 70
8
 71
3
 72
8
 73
4
 74
0
 40
0
 40
0
 40
0
 40
0
 40
1
 40
1
 40
1
 40
1
 10
3986.388889
 20
-1057.204444
 30
0.0
 10
4004.168889
 20
-1057.204444
 30
0.0
 10
4019.126667
 20
-1061.155556
 30
0.0
 10
4034.648889
 20
-1069.622222
 30
0.0
  0
SPLINE
  5
1b0
100
AcDbEntity
  8
0
 62
7
100
AcDbSpline
 70
8
 71
3
 72
8
 73
4
 74
0
 40
0
 40
0
 40
0
 40
0
 40
1
 40
1
 40
1
 40
1
 10
4034.648889
 20
-1069.622222
 30
0.0
 10
4050.171111
 20
-1078.371111
 30
0.0
 10
4061.177778
 20
-1088.813333
 30
0.0
 10
4070.208889
 20
-1103.771111
 30
0.0
  0
SPLINE
  5
1b1
100
AcDbEntity
  8
0
 62
7
100
AcDbSpline
 70
8
 71
3
 72
8
 73
4
 74
0
 40
0
 40
0
 40
0
 40
0
 40
1
 40
1
 40
1
 40
1
 10
4070.208889
 20
-1103.771111
 30
0.0
 10
4079.240000
 20
-1118.728889
 30
0.0
 10
4083.191111
 20
-1133.122222
 30
0.0
 10
4083.191111
 20
-1150.337778
 30
0.0
  0
SPLINE
  5
1b2
100
AcDbEntity
  8
0
 62
7
100
AcDbSpline
 70
8
 71
3
 72
8
 73
4
 74
0
 40
0
 40
0
 40
0
 40
0
 40
1
 40
1
 40
1
 40
1
 10
4083.191111
 20
-1150.337778
 30
0.0
 10
4083.191111
 20
-1167.553333
 30
0.0
 10
4079.240000
 20
-1181.946667
 30
0.0
 10
4070.208889
 20
-1196.904444
 30
0.0
  0
SPLINE
  5
1b3
100
AcDbEntity
  8
0
 62
7
100
AcDbSpline
 70
8
 71
3
 72
8
 73
4
 74
0
 40
0
 40
0
 40
0
 40
0
 40
1
 40
1
 40
1
 40
1
 10
4070.208889
 20
-1196.904444
 30
0.0
 10
4061.177778
 20
-1211.862222
 30
0.0
 10
4050.171111
 20
-1222.304444
 30
0.0
 10
4034.648889
 20
-1231.053333
 30
0.0
  0
SPLINE
  5
1b4
100
AcDbEntity
  8
0
 62
7
100
AcDbSpline
 70
8
 71
3
 72
8
 73
4
 74
0
 40
0
 40
0
 40
0
 40
0
 40
1
 40
1
 40
1
 40
1
 10
4034.648889
 20
-1231.053333
 30
0.0
 10
4019.126667
 20
-1239.520000
 30
0.0
 10
4004.168889
 20
-1243.471111
 30
0.0
 10
3986.388889
 20
-1243.471111
 30
0.0
  0
SPLINE
  5
1b5
100
AcDbEntity
  8
0
 62
7
100
AcDbSpline
 70
8
 71
3
 72
8
 73
4
 74
0
 40
0
 40
0
 40
0
 40
0
 40
1
 40
1
 40
1
 40
1
 10
3986.388889
 20
-1781.104444
 30
0.0
 10
3968.326667
 20
-1781.104444
 30
0.0
 10
3953.368889
 20
-1777.153333
 30
0.0
 10
3937.846667
 20
-1768.686667
 30
0.0
  0
SPLINE
  5
1b6
100
AcDbEntity
  8
0
 62
7
100
AcDbSpline
 70
8
 71
3
 72
8
 73
4
 74
0
 40
0
 40
0
 40
0
 40
0
 40
1
 40
1
 40
1
 40
1
 10
3937.846667
 20
-1768.686667
 30
0.0
 10
3922.324444
 20
-1759.937778
 30
0.0
 10
3911.317778
 20
-1749.495556
 30
0.0
 10
3902.286667
 20
-1734.537778
 30
0.0
  0
SPLINE
  5
1b7
100
AcDbEntity
  8
0
 62
7
100
AcDbSpline
 70
8
 71
3
 72
8
 73
4
 74
0
 40
0
 40
0
 40
0
 40
0
 40
1
 40
1
 40
1
 40
1
 10
3902.286667
 20
-1734.537778
 30
0.0
 10
3893.255556
 20
-1719.580000
 30
0.0
 10
3889.304444
 20
-1705.186667
 30
0.0
 10
3889.304444
 20
-1687.971111
 30
0.0
  0
SPLINE
  5
1b8
100
AcDbEntity
  8
0
 62
7
100
AcDbSpline
 70
8
 71
3
 72
8
 73
4
 74
0
 40
0
 40
0
 40
0
 40
0
 40
1
 40
1
 40
1
 40
1
 10
3889.304444
 20
-1687.971111
 30
0.0
 10
3889.304444
 20
-1670.755556
 30
0.0
 10
3893.255556
 20
-1656.362222
 30
0.0
 10
3902.286667
 20
-1641.404444
 30
0.0
  0
SPLINE
  5
1b9
100
AcDbEntity
  8
0
 62
7
100
AcDbSpline
 70
8
 71
3
 72
8
 73
4
 74
0
 40
0
 40
0
 40
0
 40
0
 40
1
 40
1
 40
1
 40
1
 10
3902.286667
 20
-1641.404444
 30
0.0
 10
3911.317778
 20
-1626.446667
 30
0.0
 10
3922.324444
 20
-1616.004444
 30
0.0
 10
3937.846667
 20
-1607.255556
 30
0.0
  0
SPLINE
  5
1ba
100
AcDbEntity
  8
0
 62
7
100
AcDbSpline
 70
8
 71
3
 72
8
 73
4
 74
0
 40
0
 40
0
 40
0
 40
0
 40
1
 40
1
 40
1
 40
1
 10
3937.846667
 20
-1607.255556
 30
0.0
 10
3953.368889
 20
-1598.788889
 30
0.0
 10
3968.326667
 20
-1594.837778
 30
0.0
 10
3986.388889
 20
-1594.837778
 30
0.0
  0
SPLINE
  5
1bb
100
AcDbEntity
  8
0
 62
7
100
AcDbSpline
 70
8
 71
3
 72
8
 73
4
 74
0
 40
0
 40
0
 40
0
 40
0
 40
1
 40
1
 40
1
 40
1
 10
3986.388889
 20
-1594.837778
 30
0.0
 10
4004.168889
 20
-1594.837778
 30
0.0
 10
4019.126667
 20
-1598.788889
 30
0.0
 10
4034.648889
 20
-1607.255556
 30
0.0
  0
SPLINE
  5
1bc
100
AcDbEntity
  8
0
 62
7
100
AcDbSpline
 70
8
 71
3
 72
8
 73
4
 74
0
 40
0
 40
0
 40
0
 40
0
 40
1
 40
1
 40
1
 40
1
 10
4034.648889
 20
-1607.255556
 30
0.0
 10
4050.171111
 20
-1616.004444
 30
0.0
 10
4061.177778
 20
-1626.446667
 30
0.0
 10
4070.208889
 20
-1641.404444
 30
0.0
  0
SPLINE
  5
1bd
100
AcDbEntity
  8
0
 62
7
100
AcDbSpline
 70
8
 71
3
 72
8
 73
4
 74
0
 40
0
 40
0
 40
0
 40
0
 40
1
 40
1
 40
1
 40
1
 10
4070.208889
 20
-1641.404444
 30
0.0
 10
4079.240000
 20
-1656.362222
 30
0.0
 10
4083.191111
 20
-1670.755556
 30
0.0
 10
4083.191111
 20
-1687.971111
 30
0.0
  0
SPLINE
  5
1be
100
AcDbEntity
  8
0
 62
7
100
AcDbSpline
 70
8
 71
3
 72
8
 73
4
 74
0
 40
0
 40
0
 40
0
 40
0
 40
1
 40
1
 40
1
 40
1
 10
4083.191111
 20
-1687.971111
 30
0.0
 10
4083.191111
 20
-1705.186667
 30
0.0
 10
4079.240000
 20
-1719.580000
 30
0.0
 10
4070.208889
 20
-1734.537778
 30
0.0
  0
SPLINE
  5
1bf
100
AcDbEntity
  8
0
 62
7
100
AcDbSpline
 70
8
 71
3
 72
8
 73
4
 74
0
 40
0
 40
0
 40
0
 40
0
 40
1
 40
1
 40
1
 40
1
 10
4070.208889
 20
-1734.537778
 30
0.0
 10
4061.177778
 20
-1749.495556
 30
0.0
 10
4050.171111
 20
-1759.937778
 30
0.0
 10
4034.648889
 20
-1768.686667
 30
0.0
  0
SPLINE
  5
1c0
100
AcDbEntity
  8
0
 62
7
100
AcDbSpline
 70
8
 71
3
 72
8
 73
4
 74
0
 40
0
 40
0
 40
0
 40
0
 40
1
 40
1
 40
1
 40
1
 10
4034.648889
 20
-1768.686667
 30
0.0
 10
4019.126667
 20
-1777.153333
 30
0.0
 10
4004.168889
 20
-1781.104444
 30
0.0
 10
3986.388889
 20
-1781.104444
 30
0.0
  0
SPLINE
  5
1c1
100
AcDbEntity
  8
0
 62
7
100
AcDbSpline
 70
8
 71
3
 72
8
 73
4
 74
0
 40
0
 40
0
 40
0
 40
0
 40
1
 40
1
 40
1
 40
1
 10
3552.613333
 20
-3025.704444
 30
0.0
 10
3528.906667
 20
-3025.704444
 30
0.0
 10
3508.586667
 20
-3020.342222
 30
0.0
 10
3488.266667
 20
-3008.488889
 30
0.0
  0
SPLINE
  5
1c2
100
AcDbEntity
  8
0
 62
7
100
AcDbSpline
 70
8
 71
3
 72
8
 73
4
 74
0
 40
0
 40
0
 40
0
 40
0
 40
1
 40
1
 40
1
 40
1
 10
3488.266667
 20
-3008.488889
 30
0.0
 10
3467.664444
 20
-2996.635556
 30
0.0
 10
3452.706667
 20
-2981.677778
 30
0.0
 10
3440.853333
 20
-2961.357778
 30
0.0
  0
SPLINE
  5
1c3
100
AcDbEntity
  8
0
 62
7
100
AcDbSpline
 70
8
 71
3
 72
8
 73
4
 74
0
 40
0
 40
0
 40
0
 40
0
 40
1
 40
1
 40
1
 40
1
 10
3440.853333
 20
-2961.357778
 30
0.0
 10
3429.000000
 20
-2940.755556
 30
0.0
 10
3423.637778
 20
-2920.435556
 30
0.0
 10
3423.637778
 20
-2896.728889
 30
0.0
  0
SPLINE
  5
1c4
100
AcDbEntity
  8
0
 62
7
100
AcDbSpline
 70
8
 71
3
 72
8
 73
4
 74
0
 40
0
 40
0
 40
0
 40
0
 40
1
 40
1
 40
1
 40
1
 10
3423.637778
 20
-2896.728889
 30
0.0
 10
3423.637778
 20
-2873.022222
 30
0.0
 10
3429.000000
 20
-2852.702222
 30
0.0
 10
3440.853333
 20
-2832.382222
 30
0.0
  0
SPLINE
  5
1c5
100
AcDbEntity
  8
0
 62
7
100
AcDbSpline
 70
8
 71
3
 72
8
 73
4
 74
0
 40
0
 40
0
 40
0
 40
0
 40
1
 40
1
 40
1
 40
1
 10
3440.853333
 20
-2832.382222
 30
0.0
 10
3452.706667
 20
-2811.780000
 30
0.0
 10
3467.664444
 20
-2796.822222
 30
0.0
 10
3488.266667
 20
-2784.968889
 30
0.0
  0
SPLINE
  5
1c6
100
AcDbEntity
  8
0
 62
7
100
AcDbSpline
 70
8
 71
3
 72
8
 73
4
 74
0
 40
0
 40
0
 40
0
 40
0
 40
1
 40
1
 40
1
 40
1
 10
3488.266667
 20
-2784.968889
 30
0.0
 10
3508.586667
 20
-2773.115556
 30
0.0
 10
3528.906667
 20
-2767.753333
 30
0.0
 10
3552.613333
 20
-2767.753333
 30
0.0
  0
SPLINE
  5
1c7
100
AcDbEntity
  8
0
 62
7
100
AcDbSpline
 70
8
 71
3
 72
8
 73
4
 74
0
 40
0
 40
0
 40
0
 40
0
 40
1
 40
1
 40
1
 40
1
 10
3552.613333
 20
-2767.753333
 30
0.0
 10
3576.320000
 20
-2767.753333
 30
0.0
 10
3596.640000
 20
-2773.115556
 30
0.0
 10
3617.242222
 20
-2784.968889
 30
0.0
  0
SPLINE
  5
1c8
100
AcDbEntity
  8
0
 62
7
100
AcDbSpline
 70
8
 71
3
 72
8
 73
4
 74
0
 40
0
 40
0
 40
0
 40
0
 40
1
 40
1
 40
1
 40
1
 10
3617.242222
 20
-2784.968889
 30
0.0
 10
3637.562222
 20
-2796.822222
 30
0.0
 10
3652.520000
 20
-2811.780000
 30
0.0
 10
3664.373333
 20
-2832.382222
 30
0.0
  0
SPLINE
  5
1c9
100
AcDbEntity
  8
0
 62
7
100
AcDbSpline
 70
8
 71
3
 72
8
 73
4
 74
0
 40
0
 40
0
 40
0
 40
0
 40
1
 40
1
 40
1
 40
1
 10
3664.373333
 20
-2832.382222
 30
0.0
 10
3676.226667
 20
-2852.702222
 30
0.0
 10
3681.588889
 20
-2873.022222
 30
0.0
 10
3681.588889
 20
-2896.728889
 30
0.0
  0
SPLINE
  5
1ca
100
AcDbEntity
  8
0
 62
7
100
AcDbSpline
 70
8
 71
3
 72
8
 73
4
 74
0
 40
0
 40
0
 40
0
 40
0
 40
1
 40
1
 40
1
 40
1
 10
3681.588889
 20
-2896.728889
 30
0.0
 10
3681.588889
 20
-2920.435556
 30
0.0
 10
3676.226667
 20
-2940.755556
 30
0.0
 10
3664.373333
 20
-2961.357778
 30
0.0
  0
SPLINE
  5
1cb
100
AcDbEntity
  8
0
 62
7
100
AcDbSpline
 70
8
 71
3
 72
8
 73
4
 74
0
 40
0
 40
0
 40
0
 40
0
 40
1
 40
1
 40
1
 40
1
 10
3664.373333
 20
-2961.357778
 30
0.0
 10
3652.520000
 20
-2981.677778
 30
0.0
 10
3637.562222
 20
-2996.635556
 30
0.0
 10
3617.242222
 20
-3008.488889
 30
0.0
  0
SPLINE
  5
1cc
100
AcDbEntity
  8
0
 62
7
100
AcDbSpline
 70
8
 71
3
 72
8
 73
4
 74
0
 40
0
 40
0
 40
0
 40
0
 40
1
 40
1
 40
1
 40
1
 10
3617.242222
 20
-3008.488889
 30
0.0
 10
3596.640000
 20
-3020.342222
 30
0.0
 10
3576.320000
 20
-3025.704444
 30
0.0
 10
3552.613333
 20
-3025.704444
 30
0.0
  0
SPLINE
  5
1cd
100
AcDbEntity
  8
0
 62
7
100
AcDbSpline
 70
8
 71
3
 72
8
 73
4
 74
0
 40
0
 40
0
 40
0
 40
0
 40
1
 40
1
 40
1
 40
1
 10
3552.895556
 20
-2617.328889
 30
0.0
 10
3544.711111
 20
-2617.328889
 30
0.0
 10
3538.220000
 20
-2615.635556
 30
0.0
 10
3531.164444
 20
-2611.684444
 30
0.0
  0
SPLINE
  5
1ce
100
AcDbEntity
  8
0
 62
7
100
AcDbSpline
 70
8
 71
3
 72
8
 73
4
 74
0
 40
0
 40
0
 40
0
 40
0
 40
1
 40
1
 40
1
 40
1
 10
3531.164444
 20
-2611.684444
 30
0.0
 10
3524.391111
 20
-2607.733333
 30
0.0
 10
3519.311111
 20
-2602.653333
 30
0.0
 10
3515.360000
 20
-2595.880000
 30
0.0
  0
SPLINE
  5
1cf
100
AcDbEntity
  8
0
 62
7
100
AcDbSpline
 70
8
 71
3
 72
8
 73
4
 74
0
 40
0
 40
0
 40
0
 40
0
 40
1
 40
1
 40
1
 40
1
 10
3515.360000
 20
-2595.880000
 30
0.0
 10
3511.408889
 20
-2588.824444
 30
0.0
 10
3509.715556
 20
-2582.333333
 30
0.0
 10
3509.715556
 20
-2574.431111
 30
0.0
  0
SPLINE
  5
1d0
100
AcDbEntity
  8
0
 62
7
100
AcDbSpline
 70
8
 71
3
 72
8
 73
4
 74
0
 40
0
 40
0
 40
0
 40
0
 40
1
 40
1
 40
1
 40
1
 10
3509.715556
 20
-2574.431111
 30
0.0
 10
3509.715556
 20
-2566.246667
 30
0.0
 10
3511.408889
 20
-2559.755556
 30
0.0
 10
3515.360000
 20
-2552.700000
 30
0.0
  0
SPLINE
  5
1d1
100
AcDbEntity
  8
0
 62
7
100
AcDbSpline
 70
8
 71
3
 72
8
 73
4
 74
0
 40
0
 40
0
 40
0
 40
0
 40
1
 40
1
 40
1
 40
1
 10
3515.360000
 20
-2552.700000
 30
0.0
 10
3519.311111
 20
-2545.926667
 30
0.0
 10
3524.391111
 20
-2540.846667
 30
0.0
 10
3531.164444
 20
-2536.895556
 30
0.0
  0
SPLINE
  5
1d2
100
AcDbEntity
  8
0
 62
7
100
AcDbSpline
 70
8
 71
3
 72
8
 73
4
 74
0
 40
0
 40
0
 40
0
 40
0
 40
1
 40
1
 40
1
 40
1
 10
3531.164444
 20
-2536.895556
 30
0.0
 10
3538.220000
 20
-2532.944444
 30
0.0
 10
3544.711111
 20
-2531.251111
 30
0.0
 10
3552.895556
 20
-2531.251111
 30
0.0
  0
SPLINE
  5
1d3
100
AcDbEntity
  8
0
 62
7
100
AcDbSpline
 70
8
 71
3
 72
8
 73
4
 74
0
 40
0
 40
0
 40
0
 40
0
 40
1
 40
1
 40
1
 40
1
 10
3552.895556
 20
-2531.251111
 30
0.0
 10
3560.797778
 20
-2531.251111
 30
0.0
 10
3567.288889
 20
-2532.944444
 30
0.0
 10
3574.344444
 20
-2536.895556
 30
0.0
  0
SPLINE
  5
1d4
100
AcDbEntity
  8
0
 62
7
100
AcDbSpline
 70
8
 71
3
 72
8
 73
4
 74
0
 40
0
 40
0
 40
0
 40
0
 40
1
 40
1
 40
1
 40
1
 10
3574.344444
 20
-2536.895556
 30
0.0
 10
3581.117778
 20
-2540.846667
 30
0.0
 10
3586.197778
 20
-2545.926667
 30
0.0
 10
3590.148889
 20
-2552.700000
 30
0.0
  0
SPLINE
  5
1d5
100
AcDbEntity
  8
0
 62
7
100
AcDbSpline
 70
8
 71
3
 72
8
 73
4
 74
0
 40
0
 40
0
 40
0
 40
0
 40
1
 40
1
 40
1
 40
1
 10
3590.148889
 20
-2552.700000
 30
0.0
 10
3594.100000
 20
-2559.755556
 30
0.0
 10
3595.793333
 20
-2566.246667
 30
0.0
 10
3595.793333
 20
-2574.431111
 30
0.0
  0
SPLINE
  5
1d6
100
AcDbEntity
  8
0
 62
7
100
AcDbSpline
 70
8
 71
3
 72
8
 73
4
 74
0
 40
0
 40
0
 40
0
 40
0
 40
1
 40
1
 40
1
 40
1
 10
3595.793333
 20
-2574.431111
 30
0.0
 10
3595.793333
 20
-2582.333333
 30
0.0
 10
3594.100000
 20
-2588.824444
 30
0.0
 10
3590.148889
 20
-2595.880000
 30
0.0
  0
SPLINE
  5
1d7
100
AcDbEntity
  8
0
 62
7
100
AcDbSpline
 70
8
 71
3
 72
8
 73
4
 74
0
 40
0
 40
0
 40
0
 40
0
 40
1
 40
1
 40
1
 40
1
 10
3590.148889
 20
-2595.880000
 30
0.0
 10
3586.197778
 20
-2602.653333
 30
0.0
 10
3581.117778
 20
-2607.733333
 30
0.0
 10
3574.344444
 20
-2611.684444
 30
0.0
  0
SPLINE
  5
1d8
100
AcDbEntity
  8
0
 62
7
100
AcDbSpline
 70
8
 71
3
 72
8
 73
4
 74
0
 40
0
 40
0
 40
0
 40
0
 40
1
 40
1
 40
1
 40
1
 10
3574.344444
 20
-2611.684444
 30
0.0
 10
3567.288889
 20
-2615.635556
 30
0.0
 10
3560.797778
 20
-2617.328889
 30
0.0
 10
3552.895556
 20
-2617.328889
 30
0.0
  0
SPLINE
  5
1d9
100
AcDbEntity
  8
0
 62
7
100
AcDbSpline
 70
8
 71
3
 72
8
 73
4
 74
0
 40
0
 40
0
 40
0
 40
0
 40
1
 40
1
 40
1
 40
1
 10
820.702222
 20
-1798.884444
 30
0.0
 10
800.100000
 20
-1798.884444
 30
0.0
 10
782.602222
 20
-1794.368889
 30
0.0
 10
765.104444
 20
-1783.926667
 30
0.0
  0
SPLINE
  5
1da
100
AcDbEntity
  8
0
 62
7
100
AcDbSpline
 70
8
 71
3
 72
8
 73
4
 74
0
 40
0
 40
0
 40
0
 40
0
 40
1
 40
1
 40
1
 40
1
 10
765.104444
 20
-1783.926667
 30
0.0
 10
747.324444
 20
-1773.766667
 30
0.0
 10
734.624444
 20
-1761.066667
 30
0.0
 10
724.464444
 20
-1743.286667
 30
0.0
  0
SPLINE
  5
1db
100
AcDbEntity
  8
0
 62
7
100
AcDbSpline
 70
8
 71
3
 72
8
 73
4
 74
0
 40
0
 40
0
 40
0
 40
0
 40
1
 40
1
 40
1
 40
1
 10
724.464444
 20
-1743.286667
 30
0.0
 10
714.022222
 20
-1725.788889
 30
0.0
 10
709.506667
 20
-1708.291111
 30
0.0
 10
709.506667
 20
-1687.971111
 30
0.0
  0
SPLINE
  5
1dc
100
AcDbEntity
  8
0
 62
7
100
AcDbSpline
 70
8
 71
3
 72
8
 73
4
 74
0
 40
0
 40
0
 40
0
 40
0
 40
1
 40
1
 40
1
 40
1
 10
709.506667
 20
-1687.971111
 30
0.0
 10
709.506667
 20
-1667.368889
 30
0.0
 10
714.022222
 20
-1649.871111
 30
0.0
 10
724.464444
 20
-1632.373333
 30
0.0
  0
SPLINE
  5
1dd
100
AcDbEntity
  8
0
 62
7
100
AcDbSpline
 70
8
 71
3
 72
8
 73
4
 74
0
 40
0
 40
0
 40
0
 40
0
 40
1
 40
1
 40
1
 40
1
 10
724.464444
 20
-1632.373333
 30
0.0
 10
734.624444
 20
-1614.593333
 30
0.0
 10
747.324444
 20
-1601.893333
 30
0.0
 10
765.104444
 20
-1591.733333
 30
0.0
  0
SPLINE
  5
1de
100
AcDbEntity
  8
0
 62
7
100
AcDbSpline
 70
8
 71
3
 72
8
 73
4
 74
0
 40
0
 40
0
 40
0
 40
0
 40
1
 40
1
 40
1
 40
1
 10
765.104444
 20
-1591.733333
 30
0.0
 10
782.602222
 20
-1581.291111
 30
0.0
 10
800.100000
 20
-1576.775556
 30
0.0
 10
820.702222
 20
-1576.775556
 30
0.0
  0
SPLINE
  5
1df
100
AcDbEntity
  8
0
 62
7
100
AcDbSpline
 70
8
 71
3
 72
8
 73
4
 74
0
 40
0
 40
0
 40
0
 40
0
 40
1
 40
1
 40
1
 40
1
 10
820.702222
 20
-1576.775556
 30
0.0
 10
841.022222
 20
-1576.775556
 30
0.0
 10
858.520000
 20
-1581.291111
 30
0.0
 10
876.017778
 20
-1591.733333
 30
0.0
  0
SPLINE
  5
1e0
100
AcDbEntity
  8
0
 62
7
100
AcDbSpline
 70
8
 71
3
 72
8
 73
4
 74
0
 40
0
 40
0
 40
0
 40
0
 40
1
 40
1
 40
1
 40
1
 10
876.017778
 20
-1591.733333
 30
0.0
 10
893.797778
 20
-1601.893333
 30
0.0
 10
906.497778
 20
-1614.593333
 30
0.0
 10
916.657778
 20
-1632.373333
 30
0.0
  0
SPLINE
  5
1e1
100
AcDbEntity
  8
0
 62
7
100
AcDbSpline
 70
8
 71
3
 72
8
 73
4
 74
0
 40
0
 40
0
 40
0
 40
0
 40
1
 40
1
 40
1
 40
1
 10
916.657778
 20
-1632.373333
 30
0.0
 10
927.100000
 20
-1649.871111
 30
0.0
 10
931.615556
 20
-1667.368889
 30
0.0
 10
931.615556
 20
-1687.971111
 30
0.0
  0
SPLINE
  5
1e2
100
AcDbEntity
  8
0
 62
7
100
AcDbSpline
 70
8
 71
3
 72
8
 73
4
 74
0
 40
0
 40
0
 40
0
 40
0
 40
1
 40
1
 40
1
 40
1
 10
931.615556
 20
-1687.971111
 30
0.0
 10
931.615556
 20
-1708.291111
 30
0.0
 10
927.100000
 20
-1725.788889
 30
0.0
 10
916.657778
 20
-1743.286667
 30
0.0
  0
SPLINE
  5
1e3
100
AcDbEntity
  8
0
 62
7
100
AcDbSpline
 70
8
 71
3
 72
8
 73
4
 74
0
 40
0
 40
0
 40
0
 40
0
 40
1
 40
1
 40
1
 40
1
 10
916.657778
 20
-1743.286667
 30
0.0
 10
906.497778
 20
-1761.066667
 30
0.0
 10
893.797778
 20
-1773.766667
 30
0.0
 10
876.017778
 20
-1783.926667
 30
0.0
  0
SPLINE
  5
1e4
100
AcDbEntity
  8
0
 62
7
100
AcDbSpline
 70
8
 71
3
 72
8
 73
4
 74
0
 40
0
 40
0
 40
0
 40
0
 40
1
 40
1
 40
1
 40
1
 10
876.017778
 20
-1783.926667
 30
0.0
 10
858.520000
 20
-1794.368889
 30
0.0
 10
841.022222
 20
-1798.884444
 30
0.0
 10
820.702222
 20
-1798.884444
 30
0.0
  0
SPLINE
  5
1e5
100
AcDbEntity
  8
0
 62
7
100
AcDbSpline
 70
8
 71
3
 72
8
 73
4
 74
0
 40
0
 40
0
 40
0
 40
0
 40
1
 40
1
 40
1
 40
1
 10
1537.546667
 20
-1798.884444
 30
0.0
 10
1516.944444
 20
-1798.884444
 30
0.0
 10
1499.446667
 20
-1794.368889
 30
0.0
 10
1481.948889
 20
-1783.926667
 30
0.0
  0
SPLINE
  5
1e6
100
AcDbEntity
  8
0
 62
7
100
AcDbSpline
 70
8
 71
3
 72
8
 73
4
 74
0
 40
0
 40
0
 40
0
 40
0
 40
1
 40
1
 40
1
 40
1
 10
1481.948889
 20
-1783.926667
 30
0.0
 10
1464.168889
 20
-1773.766667
 30
0.0
 10
1451.468889
 20
-1761.066667
 30
0.0
 10
1441.308889
 20
-1743.286667
 30
0.0
  0
SPLINE
  5
1e7
100
AcDbEntity
  8
0
 62
7
100
AcDbSpline
 70
8
 71
3
 72
8
 73
4
 74
0
 40
0
 40
0
 40
0
 40
0
 40
1
 40
1
 40
1
 40
1
 10
1441.308889
 20
-1743.286667
 30
0.0
 10
1430.866667
 20
-1725.788889
 30
0.0
 10
1426.351111
 20
-1708.291111
 30
0.0
 10
1426.351111
 20
-1687.971111
 30
0.0
  0
SPLINE
  5
1e8
100
AcDbEntity
  8
0
 62
7
100
AcDbSpline
 70
8
 71
3
 72
8
 73
4
 74
0
 40
0
 40
0
 40
0
 40
0
 40
1
 40
1
 40
1
 40
1
 10
1426.351111
 20
-1687.971111
 30
0.0
 10
1426.351111
 20
-1667.368889
 30
0.0
 10
1430.866667
 20
-1649.871111
 30
0.0
 10
1441.308889
 20
-1632.373333
 30
0.0
  0
SPLINE
  5
1e9
100
AcDbEntity
  8
0
 62
7
100
AcDbSpline
 70
8
 71
3
 72
8
 73
4
 74
0
 40
0
 40
0
 40
0
 40
0
 40
1
 40
1
 40
1
 40
1
 10
1441.308889
 20
-1632.373333
 30
0.0
 10
1451.468889
 20
-1614.593333
 30
0.0
 10
1464.168889
 20
-1601.893333
 30
0.0
 10
1481.948889
 20
-1591.733333
 30
0.0
  0
SPLINE
  5
1ea
100
AcDbEntity
  8
0
 62
7
100
AcDbSpline
 70
8
 71
3
 72
8
 73
4
 74
0
 40
0
 40
0
 40
0
 40
0
 40
1
 40
1
 40
1
 40
1
 10
1481.948889
 20
-1591.733333
 30
0.0
 10
1499.446667
 20
-1581.291111
 30
0.0
 10
1516.944444
 20
-1576.775556
 30
0.0
 10
1537.546667
 20
-1576.775556
 30
0.0
  0
SPLINE
  5
1eb
100
AcDbEntity
  8
0
 62
7
100
AcDbSpline
 70
8
 71
3
 72
8
 73
4
 74
0
 40
0
 40
0
 40
0
 40
0
 40
1
 40
1
 40
1
 40
1
 10
1537.546667
 20
-1576.775556
 30
0.0
 10
1557.866667
 20
-1576.775556
 30
0.0
 10
1575.364444
 20
-1581.291111
 30
0.0
 10
1592.862222
 20
-1591.733333
 30
0.0
  0
SPLINE
  5
1ec
100
AcDbEntity
  8
0
 62
7
100
AcDbSpline
 70
8
 71
3
 72
8
 73
4
 74
0
 40
0
 40
0
 40
0
 40
0
 40
1
 40
1
 40
1
 40
1
 10
1592.862222
 20
-1591.733333
 30
0.0
 10
1610.642222
 20
-1601.893333
 30
0.0
 10
1623.342222
 20
-1614.593333
 30
0.0
 10
1633.502222
 20
-1632.373333
 30
0.0
  0
SPLINE
  5
1ed
100
AcDbEntity
  8
0
 62
7
100
AcDbSpline
 70
8
 71
3
 72
8
 73
4
 74
0
 40
0
 40
0
 40
0
 40
0
 40
1
 40
1
 40
1
 40
1
 10
1633.502222
 20
-1632.373333
 30
0.0
 10
1643.944444
 20
-1649.871111
 30
0.0
 10
1648.460000
 20
-1667.368889
 30
0.0
 10
1648.460000
 20
-1687.971111
 30
0.0
  0
SPLINE
  5
1ee
100
AcDbEntity
  8
0
 62
7
100
AcDbSpline
 70
8
 71
3
 72
8
 73
4
 74
0
 40
0
 40
0
 40
0
 40
0
 40
1
 40
1
 40
1
 40
1
 10
1648.460000
 20
-1687.971111
 30
0.0
 10
1648.460000
 20
-1708.291111
 30
0.0
 10
1643.944444
 20
-1725.788889
 30
0.0
 10
1633.502222
 20
-1743.286667
 30
0.0
  0
SPLINE
  5
1ef
100
AcDbEntity
  8
0
 62
7
100
AcDbSpline
 70
8
 71
3
 72
8
 73
4
 74
0
 40
0
 40
0
 40
0
 40
0
 40
1
 40
1
 40
1
 40
1
 10
1633.502222
 20
-1743.286667
 30
0.0
 10
1623.342222
 20
-1761.066667
 30
0.0
 10
1610.642222
 20
-1773.766667
 30
0.0
 10
1592.862222
 20
-1783.926667
 30
0.0
  0
SPLINE
  5
1f0
100
AcDbEntity
  8
0
 62
7
100
AcDbSpline
 70
8
 71
3
 72
8
 73
4
 74
0
 40
0
 40
0
 40
0
 40
0
 40
1
 40
1
 40
1
 40
1
 10
1592.862222
 20
-1783.926667
 30
0.0
 10
1575.364444
 20
-1794.368889
 30
0.0
 10
1557.866667
 20
-1798.884444
 30
0.0
 10
1537.546667
 20
-1798.884444
 30
0.0
  0
LWPOLYLINE
  5
1f1
100
AcDbEntity
  8
0
 62
7
100
AcDbPolyline
 90
6
 70
0
 10
2960.511111
 20
-1605.844444
 30
0.0
 10
2363.611111
 20
-1605.844444
 30
0.0
 10
2363.611111
 20
-1233.028889
 30
0.0
 10
3557.411111
 20
-1233.028889
 30
0.0
 10
3557.411111
 20
-1605.844444
 30
0.0
 10
2960.511111
 20
-1605.844444
 30
0.0
  0
ENDSEC
  0
SECTION
  2
OBJECTS
  0
DICTIONARY
  5
C
330
0
100
AcDbDictionary
  3
ACAD_GROUP
350
D
  3
ACAD_MLINESTYLE
350
17
  0
DICTIONARY
  5
D
330
C
100
AcDbDictionary
  0
DICTIONARY
  5
1A
330
C
100
AcDbDictionary
  0
DICTIONARY
  5
17
330
C
100
AcDbDictionary
  3
STANDARD
350
18
  0
DICTIONARY
  5
19
330
C
100
AcDbDictionary
  0
ENDSEC
  0
EOF
